<?xml version="1.0" encoding="UTF-8" standalone="no"?>
<!-- Generator: Adobe Illustrator 16.0.0, SVG Export Plug-In . SVG Version: 6.00 Build 0)  -->

<svg
   xmlns:dc="http://purl.org/dc/elements/1.1/"
   xmlns:cc="http://creativecommons.org/ns#"
   xmlns:rdf="http://www.w3.org/1999/02/22-rdf-syntax-ns#"
   xmlns:svg="http://www.w3.org/2000/svg"
   xmlns="http://www.w3.org/2000/svg"
   xmlns:sodipodi="http://sodipodi.sourceforge.net/DTD/sodipodi-0.dtd"
   xmlns:inkscape="http://www.inkscape.org/namespaces/inkscape"
   version="1.1"
   id="Capa_1"
   x="0px"
   y="0px"
   width="612px"
   height="612px"
   viewBox="0 0 612 612"
   style="enable-background:new 0 0 612 612;"
   xml:space="preserve"
   inkscape:version="0.91 r13725"
   sodipodi:docname="icono-quitar-usuario.svg"><metadata
     id="metadata41"><rdf:RDF><cc:Work
         rdf:about=""><dc:format>image/svg+xml</dc:format><dc:type
           rdf:resource="http://purl.org/dc/dcmitype/StillImage" /><dc:title /></cc:Work></rdf:RDF></metadata><defs
     id="defs39" /><sodipodi:namedview
     pagecolor="#ffffff"
     bordercolor="#666666"
     borderopacity="1"
     objecttolerance="10"
     gridtolerance="10"
     guidetolerance="10"
     inkscape:pageopacity="0"
     inkscape:pageshadow="2"
     inkscape:window-width="1366"
     inkscape:window-height="718"
     id="namedview37"
     showgrid="false"
     inkscape:zoom="0.54535033"
     inkscape:cx="-22.483294"
     inkscape:cy="447.10517"
     inkscape:window-x="0"
     inkscape:window-y="0"
     inkscape:window-maximized="1"
     inkscape:current-layer="Capa_1" /><path
     id="path4216"
     d="m 568.12216,579.19611 -14.42498,14.42497 c -3.98384,3.98384 -10.44114,3.98384 -14.42427,7.1e-4 l -43.27564,-43.27564 -43.27494,43.27493 c -3.98383,3.98384 -10.44113,3.98384 -14.42427,7.1e-4 l -14.42497,-14.42498 c -3.98314,-3.98313 -3.98314,-10.44043 7e-4,-14.42427 l 43.27423,-43.27423 -43.27635,-43.27635 c -3.98313,-3.98313 -3.98313,-10.44043 7.1e-4,-14.42427 l 14.42568,-14.42568 c 3.98314,-3.98313 10.44044,-3.98313 14.42357,0 l 43.27564,43.27564 43.27494,-43.27493 c 3.98383,-3.98384 10.44113,-3.98384 14.42427,-7.1e-4 l 14.42497,14.42498 c 3.98314,3.98313 3.98314,10.44043 -7e-4,14.42427 l -43.27494,43.27493 43.27564,43.27565 c 3.98455,3.98313 3.98384,10.44113 7.1e-4,14.42427 z M 275.4,295.8 c 81.682,0 147.899,-66.217 147.899,-147.9 C 423.299,66.218 357.082,0 275.4,0 193.717,0 127.5,66.217 127.5,147.9 c 0,81.683 66.217,147.9 147.9,147.9 z m -122.44883,11.18047 c -0.29731,-0.004 -0.58194,0.008 -0.85156,0.0391 C 81.124608,315.13653 25.5,375.74478 25.5,448.80078 l 0,48.75 c 0,7.226 5.319875,15.6245 11.921875,18.5625 25.464469,11.32993 94.736735,34.45626 235.978515,34.67578 l 0,0.01 c 0.31739,0 0.6209,-0.006 0.9375,-0.006 0.35893,2.9e-4 0.70265,0.006 1.0625,0.006 l 0,-0.0117 c 67.04722,-0.13347 116.26596,-6.88255 150.95899,-14.85156 l 15.73437,-15.73243 -31.39844,-31.39843 c -10.4026,-10.40261 -10.40217,-27.78143 0,-38.1836 l 14.42578,-14.42578 c 5.20131,-5.20129 12.14687,-7.80078 19.0918,-7.80078 6.94493,0 13.8905,2.59948 19.0918,7.80078 l 31.39648,31.39649 1.46875,-1.46875 0,-17.32227 c 0,-73.056 -49.14024,-133.66425 -111.8418,-141.78125 -1.90555,-0.247 -4.73013,0.67722 -6.2832,1.94922 -28.67486,23.49736 -65.69512,37.59136 -103.70508,37.82031 -42.98934,-0.22874 -82.66819,-14.32277 -115.12695,-37.82031 -1.53825,-1.113 -4.18054,-1.9595 -6.26172,-1.98828 z"
     style="fill:#aa0000" /><g
     id="g7" /><g
     id="g9" /><g
     id="g11" /><g
     id="g13" /><g
     id="g15" /><g
     id="g17" /><g
     id="g19" /><g
     id="g21" /><g
     id="g23" /><g
     id="g25" /><g
     id="g27" /><g
     id="g29" /><g
     id="g31" /><g
     id="g33" /><g
     id="g35" /></svg>