<?xml version="1.0" encoding="UTF-8" standalone="no"?>
<!-- Generator: Adobe Illustrator 16.0.0, SVG Export Plug-In . SVG Version: 6.00 Build 0)  -->

<svg
   xmlns:dc="http://purl.org/dc/elements/1.1/"
   xmlns:cc="http://creativecommons.org/ns#"
   xmlns:rdf="http://www.w3.org/1999/02/22-rdf-syntax-ns#"
   xmlns:svg="http://www.w3.org/2000/svg"
   xmlns="http://www.w3.org/2000/svg"
   xmlns:sodipodi="http://sodipodi.sourceforge.net/DTD/sodipodi-0.dtd"
   xmlns:inkscape="http://www.inkscape.org/namespaces/inkscape"
   version="1.1"
   id="Capa_1"
   x="0px"
   y="0px"
   width="612px"
   height="612px"
   viewBox="0 0 612 612"
   style="enable-background:new 0 0 612 612;"
   xml:space="preserve"
   inkscape:version="0.91 r13725"
   sodipodi:docname="icono-listado-usuario.svg"><metadata
     id="metadata41"><rdf:RDF><cc:Work
         rdf:about=""><dc:format>image/svg+xml</dc:format><dc:type
           rdf:resource="http://purl.org/dc/dcmitype/StillImage" /><dc:title></dc:title></cc:Work></rdf:RDF></metadata><defs
     id="defs39" /><sodipodi:namedview
     pagecolor="#ffffff"
     bordercolor="#666666"
     borderopacity="1"
     objecttolerance="10"
     gridtolerance="10"
     guidetolerance="10"
     inkscape:pageopacity="0"
     inkscape:pageshadow="2"
     inkscape:window-width="1366"
     inkscape:window-height="718"
     id="namedview37"
     showgrid="false"
     inkscape:zoom="0.54535033"
     inkscape:cx="229.61214"
     inkscape:cy="302.96598"
     inkscape:window-x="0"
     inkscape:window-y="0"
     inkscape:window-maximized="1"
     inkscape:current-layer="Capa_1" /><g
     id="g7" /><g
     id="g9" /><g
     id="g11" /><g
     id="g13" /><g
     id="g15" /><g
     id="g17" /><g
     id="g19" /><g
     id="g21" /><g
     id="g23" /><g
     id="g25" /><g
     id="g27" /><g
     id="g29" /><g
     id="g31" /><g
     id="g33" /><g
     id="g35" /><path
     id="path4831"
     style="fill:#0055d4;fill-opacity:1"
     d="m 275.74834,195.51658 c -10.80167,-2.49804 -17.78074,-11.12027 -17.64561,-21.8001 0.15695,-12.40559 9.87322,-20.98491 23.7659,-20.98491 8.0574,0 14.50668,3.5219 19.6101,10.70894 4.23568,5.965 3.83618,17.30904 -0.83043,23.58096 -4.94458,6.64549 -16.23773,10.49838 -24.89996,8.49511 z m 115.0993,33.50623 c -26.54168,-7.88354 -49.94862,-15.39406 -52.01543,-16.69007 -11.82773,-7.41666 -12.11602,-25.22107 -0.53615,-33.1122 8.36217,-5.69841 12.01754,-5.11146 63.85229,10.25285 26.46253,7.84375 49.79003,15.0887 51.83889,16.09989 5.17308,2.55313 9.67047,9.04154 10.53304,15.19612 1.55502,11.09511 -9.16613,22.8141 -20.72381,22.65265 -2.58018,-0.036 -26.40714,-6.51571 -52.94883,-14.39924 z M 238.28285,276.3707 c -2.30109,-1.02364 -5.9599,-3.66903 -8.13069,-5.87863 -14.51803,-14.77763 0.6877,-39.60786 21.92085,-35.79573 19.6657,3.5307 25.76905,27.34087 9.96542,38.87671 -6.09941,4.45225 -17.11883,5.74998 -23.75558,2.79765 z m 112.42505,37.15427 c -29.99733,-10.33767 -49.23837,-17.67388 -51.38406,-19.59165 -10.67649,-9.54246 -9.40153,-23.51994 2.9504,-32.34553 7.24905,-5.17954 13.0944,-3.93659 64.31181,13.6753 26.07902,8.96767 48.94655,17.38555 50.81672,18.70641 6.35536,4.48864 8.99017,9.17963 8.99017,16.00601 0,7.5621 -3.85684,14.42957 -10.06879,17.92851 -8.19912,4.61821 -14.49333,3.23891 -65.61625,-14.37905 z m -143.20297,48.71606 c -5.80745,-1.17864 -11.87933,-4.79988 -15.24387,-9.09136 -2.14025,-2.7299 -2.7892,-5.63328 -2.7892,-12.47887 0,-8.08699 0.39122,-9.31498 4.1838,-13.13196 6.50288,-6.54473 11.20321,-8.34225 20.18785,-7.7203 13.34558,0.92384 21.44328,8.89126 21.44328,21.09829 0,10.78048 -6.79005,18.6954 -18.06232,21.05462 -2.99146,0.62608 -7.36525,0.7474 -9.71954,0.26958 z m 108.87552,36.90927 c -26.07902,-8.96454 -49.08815,-17.36128 -51.1314,-18.65942 -4.70191,-2.98726 -8.1391,-9.84454 -8.1391,-16.23771 0,-11.58312 12.15815,-22.03625 23.30327,-20.03529 8.23172,1.47789 98.40949,32.52372 102.12455,35.15878 6.4957,4.60737 8.99326,9.1562 8.88257,16.17798 -0.1938,12.29448 -8.73548,20.21809 -21.55856,19.99864 -4.0294,-0.069 -21.979,-5.5742 -53.48133,-16.40298 z m -6.38812,170.07328 C 292.57404,566.14035 275.87668,559.62142 190.13191,522.4281 139.1449,500.31158 93.349058,480.41776 88.36336,478.21961 68.06507,469.27023 48.82777,450.9376 38.80176,430.98878 30.21872,413.91105 28.01078,403.25905 27.87773,378.28695 c -0.065,-12.20491 0.4905,-22.98492 1.2462,-24.1825 1.18769,-1.88216 16.93504,3.86048 122.10744,44.52933 l 120.74389,46.69015 1.60599,13.09979 c 5.50512,44.90401 28.42548,70.67837 62.85215,70.67837 36.77124,0 57.98496,-20.79768 86.80181,-85.09945 20.3777,-45.47071 114.13926,-291.65294 111.64216,-293.12989 -0.9515,-0.5628 -266.06448,-65.488467 -271.21723,-66.420597 -2.13527,-0.38627 -11.11351,20.488737 -59.50291,138.348397 -39.44896,96.08385 -57.5605,138.67237 -58.84769,138.37784 -1.02271,-0.23402 -9.91267,-3.19441 -19.75545,-6.57868 -15.91169,-5.47093 -17.82735,-6.45965 -17.27713,-8.91706 1.28357,-5.73265 120.00269,-292.538937 122.47839,-295.888027 3.03374,-4.10402 10.57377,-7.83877 15.82561,-7.83877 4.17815,0 320.07931,72.591197 326.14211,74.944467 2.156,0.83687 5.6077,3.64082 7.6703,6.23101 6.8795,8.63904 5.9682,12.60278 -17.5458,76.31289 -45.9218,124.42364 -86.1771,228.95808 -100.99331,262.25818 -17.0844,38.39814 -31.20415,60.51094 -49.9052,78.15614 -14.00206,13.21153 -30.41488,22.25747 -48.46787,26.71313 -12.15902,3.00096 -42.90527,4.52533 -53.48886,2.65191 z"
     inkscape:connector-curvature="0" /></svg>