<?xml version="1.0" encoding="UTF-8" standalone="no"?>
<svg
   xmlns:dc="http://purl.org/dc/elements/1.1/"
   xmlns:cc="http://creativecommons.org/ns#"
   xmlns:rdf="http://www.w3.org/1999/02/22-rdf-syntax-ns#"
   xmlns:svg="http://www.w3.org/2000/svg"
   xmlns="http://www.w3.org/2000/svg"
   xmlns:sodipodi="http://sodipodi.sourceforge.net/DTD/sodipodi-0.dtd"
   xmlns:inkscape="http://www.inkscape.org/namespaces/inkscape"
   width="20"
   height="20"
   viewBox="0 0 20 20"
   class="cont-icono"
   id="svg4190"
   version="1.1"
   inkscape:version="0.91 r13725"
   sodipodi:docname="icono-bomberos-lesionados.svg">
  <metadata
     id="metadata4198">
    <rdf:RDF>
      <cc:Work
         rdf:about="">
        <dc:format>image/svg+xml</dc:format>
        <dc:type
           rdf:resource="http://purl.org/dc/dcmitype/StillImage" />
        <dc:title></dc:title>
      </cc:Work>
    </rdf:RDF>
  </metadata>
  <sodipodi:namedview
     pagecolor="#a4a4a4"
     bordercolor="#666666"
     borderopacity="1"
     objecttolerance="10"
     gridtolerance="10"
     guidetolerance="10"
     inkscape:pageopacity="0"
     inkscape:pageshadow="2"
     inkscape:window-width="1920"
     inkscape:window-height="1028"
     id="namedview4196"
     showgrid="false"
     inkscape:zoom="18.7619"
     inkscape:cx="15.793505"
     inkscape:cy="11.602164"
     inkscape:window-x="0"
     inkscape:window-y="0"
     inkscape:window-maximized="1"
     inkscape:current-layer="svg4190" />
  <defs
     id="defs4302" />
  <path
     id="path4829"
     d="m 9.3724905,0.62475262 c -0.331429,0 -0.598339,0.26631974 -0.598339,0.59773638 l 0,0.1654712 a 3.5876213,2.668376 0 0 0 -2.22128,2.4658935 3.5876213,2.668376 0 0 0 0.01604,0.235628 c -0.538358,-0.048142 -1.072236,-0.102358 -1.594765,-0.1678609 -0.410797,-0.05613 -0.264748,0.129308 -0.161886,0.3843034 0.287797,0.5927451 0.849926,1.1166515 1.59836,1.5222218 -0.02705,0.1122957 -0.05236,0.225723 -0.06956,0.3423323 -0.06147,0.4175574 -0.06415,0.6071858 -0.01509,1.00842 0.103176,0.8419765 0.485686,1.6074164 1.11274,2.2266813 l 0.305754,0.3021678 -0.26739,0.040754 c -1.431335,0.2191191 -2.571871,1.2656106 -2.952114,2.7087076 -0.07689,0.291476 -0.07853,0.332533 -0.07853,1.684696 0,0.762257 -0.0094,1.385512 -0.02107,1.385531 -0.01164,4e-6 -0.06686,0.04695 -0.122893,0.104308 -0.1137719,0.116351 -0.1669169,0.305061 -0.2577969,0.913693 -0.07443,0.498395 -0.05048,1.198074 0.0522,1.521622 0.2350309,0.741047 0.7615719,1.158096 1.6277369,1.289601 0.04563,0.0069 1.066376,0.01478 2.268046,0.0173 2.2547235,0.0044 2.2462925,0.0051 2.3963445,-0.130094 0.06056,-0.05446 0.165439,-0.06091 1.194879,-0.07255 1.070211,-0.01226 1.140604,-0.01667 1.360943,-0.08934 0.332566,-0.109434 0.468833,-0.186163 0.673278,-0.379504 0.200408,-0.189529 0.345156,-0.445395 0.40169,-0.711648 0.05554,-0.261571 0.04739,-1.114432 -0.01258,-1.344764 -0.07091,-0.272263 -0.190063,-0.49041 -0.36392,-0.664283 -0.159905,-0.159905 -0.436599,-0.334263 -0.591742,-0.372917 -0.051,-0.01258 -0.08871,-0.03576 -0.08334,-0.05157 0.0051,-0.01572 0.420585,-0.620761 0.922684,-1.344158 l 0.913093,-1.31538 0.01604,3.016263 c 0.01289,2.36473 0.0261,3.032322 0.05934,3.09061 0.09459,0.165566 0.390834,0.226509 0.574358,0.118114 0.206855,-0.122169 0.196635,0.07974 0.196635,-3.859813 l 0,-3.590618 0.09472,-0.139087 c 0.228459,-0.333581 0.253615,-0.411095 0.253615,-0.78599 0,-0.475976 -0.06899,-0.615723 -0.52579,-1.0629755 -0.401689,-0.393313 -0.622063,-0.5238877 -0.931077,-0.5527709 -0.296319,-0.027676 -0.48756,0.040567 -0.929281,0.3309451 l -0.361518,0.2374196 -0.368717,-0.01006 c -0.202893,-0.006 -0.373178,-0.014775 -0.378306,-0.01981 -0.0051,-0.00506 0.104276,-0.1193703 0.243394,-0.2542125 0.755008,-0.7316909 1.143315,-1.6471647 1.143315,-2.6949148 0,-0.2802185 -0.03051,-0.5522675 -0.08573,-0.815364 0.80275,-0.4051586 1.410572,-0.9411207 1.724259,-1.5533982 0.216445,-0.4408755 0.16937,-0.4304699 -0.311163,-0.4304662 -0.506274,0.070127 -1.008476,0.125408 -1.508432,0.1726723 a 3.5876213,2.668376 0 0 0 0.0173,-0.2404084 3.5876213,2.668376 0 0 0 -2.275236,-2.482677 l 0,-0.1486783 c 0,-0.33143542 -0.266917,-0.59774203 -0.598341,-0.59774203 l -1.4814525,0 z m -0.31415,2.24286108 1.0120155,0.00281 1.012013,0.00281 0.02642,0.026419 0.02642,0.02641 0,0.7428203 0,0.7422258 -0.03239,0.089937 c -0.0454,0.1284268 -0.08981,0.2117605 -0.169654,0.3177533 -0.154087,0.2044647 -0.438073,0.4286615 -0.729638,0.5755509 -0.12415,0.062542 -0.136729,0.064652 -0.2086465,0.03541 l 0,-5.597e-4 C 9.9099105,5.3946112 9.7252245,5.2855275 9.5859925,5.1876031 9.4248615,5.0742395 9.1979665,4.8441082 9.1279485,4.7229575 9.0628845,4.6103796 9.0199295,4.5031784 9.0032635,4.411796 8.9950635,4.367395 8.9906835,4.094505 8.9906835,3.6389947 l 0,-0.7038586 0.03358,-0.034154 0.03415,-0.033582 z m -1.866356,3.3148396 c 0.86422,0.3245137 1.88892,0.5137802 2.9898865,0.5138018 1.036014,2.25e-5 2.003088,-0.1686466 2.834008,-0.4586454 0.05343,0.3976275 0.03938,0.9302155 -0.04799,1.2398366 C 12.64918,8.6068754 11.743556,9.4385635 10.619504,9.6345811 9.7652625,9.7835425 8.9223805,9.5688611 8.2423455,9.0284491 7.4817165,8.4240056 7.0436495,7.3848564 7.1511935,6.4414519 c 0.01006,-0.087893 0.02422,-0.1740561 0.04075,-0.258993 z M 14.451768,9.96313 c 0.01352,-0.00169 0.02139,0.00169 0.03176,0.00413 0.04491,0.011325 0.200439,0.127547 0.345332,0.258395 0.464202,0.419152 0.46813,0.48424 0.06116,1.072568 -0.16286,0.235438 -0.358369,0.518169 -0.434067,0.627723 -0.0757,0.109559 -0.3419,0.493484 -0.591742,0.853137 -1.169481,1.683454 -2.875442,4.141216 -3.41076,4.914395 l -0.5917435,0.854942 -1.943695,-0.0041 c -1.069152,-0.0023 -2.039691,-0.01667 -2.156527,-0.03176 -0.586547,-0.07598 -0.883376,-0.432282 -0.923288,-1.109143 -0.0173,-0.291948 0.0239,-0.765833 0.09352,-1.074367 0.03082,-0.137074 0.05566,-0.167703 0.223017,-0.275186 0.103522,-0.06648 0.860685,-0.56512 1.682301,-1.108549 0.821615,-0.543419 1.770196,-1.170271 2.107965,-1.392717 0.337775,-0.222451 1.05496,-0.696034 1.5935715,-1.052186 3.445205,-2.278119 3.817496,-2.5251925 3.913169,-2.537236 z m -4.6518015,0.559963 c 1.9911955,-0.01069 2.3018225,-0.0011 2.1217585,0.06774 -0.02422,0.0091 -0.602652,0.386892 -1.286004,0.838752 -0.6833585,0.451871 -1.5790595,1.043086 -1.9898625,1.313581 l -0.746424,0.49162 -0.01667,-0.433463 -0.01667,-0.432866 -0.106131,-0.09531 c -0.205691,-0.183647 -0.503731,-0.149276 -0.639708,0.07375 -0.06132,0.100597 -0.06704,0.166823 -0.06714,0.778798 l 0,0.668481 -0.879518,0.584548 c -0.483608,0.321545 -0.888404,0.58455 -0.899304,0.58455 -0.01069,0 -0.01321,-0.474293 -0.0056,-1.053986 0.01604,-1.204974 0.02705,-1.272562 0.291382,-1.817195 0.357593,-0.737151 0.996458,-1.261749 1.808202,-1.484452 0.258489,-0.07091 0.323389,-0.07305 2.431721,-0.08453 z m 2.6799245,5.802312 c 0.120345,0.0085 0.357357,0.08258 0.462244,0.156478 0.224872,0.158458 0.266978,0.284841 0.278771,0.838153 0.0098,0.453941 0.0056,0.489841 -0.06893,0.63071 -0.0922,0.173836 -0.323866,0.311194 -0.618119,0.365722 -0.274968,0.05094 -1.507758,0.04393 -1.477856,-0.0085 0.03019,-0.05283 0.364483,-0.53678 0.911295,-1.319581 0.235943,-0.337775 0.434272,-0.62939 0.440652,-0.6475 0.0051,-0.01415 0.03183,-0.01855 0.07195,-0.01572 z"
     style="fill:#ffffff;fill-opacity:1"
     inkscape:connector-curvature="0" />
</svg>
