<?xml version="1.0" encoding="UTF-8" standalone="no"?>
<svg
   xmlns:dc="http://purl.org/dc/elements/1.1/"
   xmlns:cc="http://creativecommons.org/ns#"
   xmlns:rdf="http://www.w3.org/1999/02/22-rdf-syntax-ns#"
   xmlns:svg="http://www.w3.org/2000/svg"
   xmlns="http://www.w3.org/2000/svg"
   xmlns:sodipodi="http://sodipodi.sourceforge.net/DTD/sodipodi-0.dtd"
   xmlns:inkscape="http://www.inkscape.org/namespaces/inkscape"
   version="1.1"
   id="Capa_1"
   x="0px"
   y="0px"
   width="612px"
   height="612px"
   viewBox="0 0 612 612"
   style="enable-background:new 0 0 612 612;"
   xml:space="preserve"
   inkscape:version="0.91 r13725"
   sodipodi:docname="icono-agregar-usuario.svg"><metadata
     id="metadata41"><rdf:RDF><cc:Work
         rdf:about=""><dc:format>image/svg+xml</dc:format><dc:type
           rdf:resource="http://purl.org/dc/dcmitype/StillImage" /><dc:title /></cc:Work></rdf:RDF></metadata><defs
     id="defs39" /><sodipodi:namedview
     pagecolor="#ffffff"
     bordercolor="#666666"
     borderopacity="1"
     objecttolerance="10"
     gridtolerance="10"
     guidetolerance="10"
     inkscape:pageopacity="0"
     inkscape:pageshadow="2"
     inkscape:window-width="1366"
     inkscape:window-height="718"
     id="namedview37"
     showgrid="false"
     inkscape:zoom="0.38562092"
     inkscape:cx="-211.34745"
     inkscape:cy="306"
     inkscape:window-x="0"
     inkscape:window-y="0"
     inkscape:window-maximized="1"
     inkscape:current-layer="Capa_1" /><g
     id="g3"
     style="fill:#0055d4;fill-opacity:1"><path
       d="M275.4,295.8c81.682,0,147.899-66.217,147.899-147.9C423.299,66.218,357.082,0,275.4,0c-81.683,0-147.9,66.217-147.9,147.9   C127.5,229.583,193.717,295.8,275.4,295.8z M345.461,206.604c-6.729,22.246-35.549,38.968-70.09,38.968   c-34.542,0-63.363-16.723-70.091-38.968H345.461z M586.5,510v20.4c0,5.634-4.566,10.2-10.199,10.2H515.1V601.8   c0,5.634-4.566,10.2-10.199,10.2h-20.4c-5.633,0-10.199-4.566-10.199-10.2v-61.199H413.1c-5.633,0-10.199-4.566-10.199-10.2V510   c0-5.633,4.566-10.199,10.199-10.199h61.201v-61.2c0-5.634,4.566-10.2,10.199-10.2h20.4c5.633,0,10.199,4.566,10.199,10.2v61.2   h61.201C581.934,499.8,586.5,504.367,586.5,510z M382.5,510v20.4c0,5.419,1.535,10.438,4.016,14.857   c-30.803,3.35-67.52,5.542-111.116,5.542c-142.607,0-212.393-23.302-237.979-34.686c-6.602-2.938-11.921-11.336-11.921-18.562   V448.8c0-73.056,55.624-133.663,126.599-141.78c2.157-0.247,5.355,0.677,7.113,1.949C191.938,332.66,232.002,346.8,275.4,346.8   s83.463-14.14,116.188-37.831c1.758-1.272,4.957-2.196,7.113-1.949c58.746,6.719,106.869,49.438,121.744,105.37   c-4.572-2.724-9.848-4.389-15.545-4.389h-20.4c-16.873,0-30.6,13.726-30.6,30.6v40.8H413.1C396.227,479.4,382.5,493.126,382.5,510z   "
       id="path5"
       style="fill:#0055d4;fill-opacity:1" /></g><g
     id="g7" /><g
     id="g9" /><g
     id="g11" /><g
     id="g13" /><g
     id="g15" /><g
     id="g17" /><g
     id="g19" /><g
     id="g21" /><g
     id="g23" /><g
     id="g25" /><g
     id="g27" /><g
     id="g29" /><g
     id="g31" /><g
     id="g33" /><g
     id="g35" /></svg>