<?xml version="1.0" encoding="UTF-8" standalone="no"?>
<!-- Created with Inkscape (http://www.inkscape.org/) -->

<svg
   xmlns:dc="http://purl.org/dc/elements/1.1/"
   xmlns:cc="http://creativecommons.org/ns#"
   xmlns:rdf="http://www.w3.org/1999/02/22-rdf-syntax-ns#"
   xmlns:svg="http://www.w3.org/2000/svg"
   xmlns="http://www.w3.org/2000/svg"
   xmlns:sodipodi="http://sodipodi.sourceforge.net/DTD/sodipodi-0.dtd"
   xmlns:inkscape="http://www.inkscape.org/namespaces/inkscape"
   width="29.999998"
   height="31.61046"
   viewBox="0 0 29.999999 31.610459"
   id="svg4300"
   version="1.1"
   inkscape:version="0.91 r13725"
   sodipodi:docname="icono-carro.svg">
  <defs
     id="defs4302" />
  <sodipodi:namedview
     id="base"
     pagecolor="#8b8b8b"
     bordercolor="#666666"
     borderopacity="1.0"
     inkscape:pageopacity="0"
     inkscape:pageshadow="2"
     inkscape:zoom="7.9195959"
     inkscape:cx="51.021307"
     inkscape:cy="13.349776"
     inkscape:document-units="px"
     inkscape:current-layer="layer1"
     showgrid="false"
     fit-margin-top="0"
     fit-margin-left="0"
     fit-margin-right="0"
     fit-margin-bottom="0"
     units="px"
     inkscape:window-width="1920"
     inkscape:window-height="1028"
     inkscape:window-x="0"
     inkscape:window-y="0"
     inkscape:window-maximized="1" />
  <metadata
     id="metadata4305">
    <rdf:RDF>
      <cc:Work
         rdf:about="">
        <dc:format>image/svg+xml</dc:format>
        <dc:type
           rdf:resource="http://purl.org/dc/dcmitype/StillImage" />
        <dc:title></dc:title>
      </cc:Work>
    </rdf:RDF>
  </metadata>
  <g
     inkscape:label="Capa 1"
     inkscape:groupmode="layer"
     id="layer1"
     transform="translate(584.35682,-682.94544)">
    <path
       style="fill:#ffffff;fill-opacity:1"
       d="m -579.17836,712.88366 0,-1.67223 -0.48549,0 -0.48547,0 0,-0.48548 c 0,-0.4675 -0.0121,-0.48548 -0.32367,-0.48548 -0.32365,0 -0.32365,0 -0.32365,-0.64732 0,-0.64731 0,-0.64731 0.32365,-0.64731 l 0.32367,0 3.5e-4,-8.54992 c 3.6e-4,-8.34119 0.006,-8.55852 0.21478,-8.90155 0.11792,-0.19338 0.37262,-0.44808 0.56601,-0.56599 0.34389,-0.20968 0.56223,-0.21438 9.95341,-0.21438 9.39119,0 9.60952,0.005 9.95342,0.21438 0.19339,0.11791 0.44809,0.37261 0.566,0.56599 0.20915,0.34303 0.21438,0.56036 0.21479,8.90155 l 3.6e-4,8.54992 0.32365,0 c 0.32365,0 0.32365,0 0.32365,0.64731 0,0.64732 0,0.64732 -0.32365,0.64732 -0.31166,0 -0.32365,0.018 -0.32365,0.48548 l 0,0.48548 -0.48548,0 -0.4855,0 0,1.67223 0,1.67222 -1.88799,0 -1.888,0 0,-1.12079 0,-1.12079 -0.36034,-0.0676 c -0.39027,-0.0732 -0.75808,-0.40629 -0.87521,-0.79254 l -0.0736,-0.24273 -4.68369,0 -4.68369,0 -0.0681,0.27142 c -0.0828,0.33004 -0.48176,0.6601 -0.91203,0.7546 l -0.31859,0.07 0,1.12423 0,1.12422 -1.88799,0 -1.888,0 0,-1.67222 z m 4.53948,-1.12451 c 0.24733,-0.24731 0.31536,-0.41202 0.31536,-0.76349 0,-0.84161 -0.84213,-1.32955 -1.65525,-0.95907 -0.65031,0.2963 -0.67191,1.60171 -0.0317,1.91174 0.46818,0.2267 1.03364,0.14871 1.37153,-0.18918 z m 11.78819,0.19559 c 0.30601,-0.13943 0.50246,-0.51442 0.50246,-0.95908 0,-0.70412 -0.39811,-1.07886 -1.14617,-1.07886 -0.77338,0 -1.2459,0.87798 -0.89134,1.65616 0.20856,0.45775 0.95879,0.64434 1.53505,0.38178 z m -13.20159,-2.16096 c 0.24504,-0.18116 0.4086,-0.218 0.75921,-0.17097 0.24577,0.033 0.53189,0.13688 0.6358,0.23091 0.16674,0.15092 0.78098,0.17098 5.23402,0.17098 4.88175,0 5.05399,-0.007 5.31941,-0.21578 0.16297,-0.12818 0.43767,-0.21577 0.67677,-0.21577 0.23908,0 0.51378,0.0876 0.67675,0.21577 0.25309,0.19909 0.43765,0.21578 2.38802,0.21578 l 2.11372,0 0,-0.37761 0,-0.37759 -11.16614,0 -11.16616,0 0,0.37759 0,0.37761 2.10814,0 c 1.98501,0 2.12638,-0.0135 2.42046,-0.23092 z m -0.10524,-2.46623 0,-1.18673 -1.67223,0 -1.67222,0 0,1.18673 0,1.18674 1.67222,0 1.67223,0 0,-1.18674 z m 12.6226,0.80915 0,-0.3776 -5.87975,0 -5.87977,0 0,0.3776 0,0.37759 5.87977,0 5.87975,0 0,-0.37759 z m 4.20753,-0.80915 0,-1.18673 -1.67222,0 -1.67222,0 0,1.18673 0,1.18674 1.67222,0 1.67222,0 0,-1.18674 z m -4.20753,-0.70125 0,-0.37759 -5.87975,0 -5.87977,0 0,0.37759 0,0.3776 5.87977,0 5.87975,0 0,-0.3776 z m -6.58101,-11.16615 0,-3.12867 -4.63908,0 -4.63907,0 0,3.12867 0,3.12868 4.63907,0 4.63908,0 0,-3.12868 z m 10.68066,0 0,-3.12867 -4.63907,0 -4.63908,0 0,3.12867 0,3.12868 4.63908,0 4.63907,0 0,-3.12868 z m -22.30532,4.18568 -1.21372,-1.08 0,-3.11717 0,-3.11718 1.24069,0 c 1.0309,0 1.24068,0.0274 1.24068,0.16182 0,0.11301 -0.11394,0.16183 -0.3776,0.16183 l -0.3776,0 0,2.96686 0,2.96684 -0.51245,7.2e-4 -0.51246,7.2e-4 0.53901,0.45782 c 1.17376,0.99694 1.26182,1.09727 1.22364,1.39413 -0.0347,0.26938 -0.0976,0.2293 -1.25019,-0.79635 z m 23.39147,0.69615 c 0.006,-0.23209 0.18593,-0.4494 0.82756,-0.99795 l 0.82026,-0.70125 -0.44996,-0.0332 -0.44995,-0.0332 0,-2.96064 0,-2.96065 -0.37761,0 c -0.26372,0 -0.3776,-0.0489 -0.3776,-0.16183 0,-0.13404 0.20379,-0.16182 1.18674,-0.16182 l 1.18675,0 0,3.11536 0,3.11537 -1.12117,1.03823 c -0.61664,0.57101 -1.15067,1.03821 -1.18674,1.03821 -0.0361,0 -0.0623,-0.13351 -0.0583,-0.29667 z m -20.18189,-9.9945 c 0,-0.0231 0.0971,-0.51397 0.21578,-1.09074 0.11868,-0.57676 0.21577,-1.0676 0.21577,-1.09073 0,-0.0231 0.31171,-0.0421 0.69268,-0.0421 0.77824,0 0.72382,-0.0709 0.86881,1.1328 0.0357,0.29669 0.0913,0.67293 0.12339,0.83611 l 0.0585,0.29669 -1.08743,0 c -0.59808,0 -1.08743,-0.0189 -1.08743,-0.042 z m 4.20754,-0.2271 -0.80914,-0.21633 0.79517,-0.0319 c 0.43733,-0.0176 0.81751,-0.009 0.84482,0.0178 0.0273,0.0273 0.0336,0.13904 0.014,0.24829 -0.0345,0.19167 -0.064,0.19106 -0.84484,-0.0177 z m 1.18675,-7.1e-4 0,-0.26972 3.77599,0 3.77598,0 0,0.26972 0,0.26971 -3.77598,0 -3.77599,0 0,-0.26971 z m 7.87564,0 c 0,-0.26525 0.0138,-0.26957 0.83611,-0.26095 l 0.83611,0.009 -0.80915,0.2589 c -0.44502,0.1424 -0.82127,0.25983 -0.83611,0.26094 -0.0149,10e-4 -0.0269,-0.11933 -0.0269,-0.26767 z m 2.91479,0.1888 c 10e-4,-0.0446 0.0737,-0.51786 0.16141,-1.05188 0.0877,-0.53405 0.15972,-1.00738 0.15994,-1.05189 2.3e-4,-0.0445 0.31254,-0.0809 0.69402,-0.0809 l 0.69361,0 0.12085,0.62034 c 0.0665,0.3412 0.14637,0.76599 0.17753,0.944 0.0312,0.17801 0.0806,0.40862 0.10988,0.51246 0.0482,0.17083 -0.0502,0.1888 -1.03297,0.1888 -0.59737,0 -1.08528,-0.0364 -1.08423,-0.0809 z m -22.01053,-0.40988 0,-0.40009 0.51246,0.064 c 0.28185,0.0352 1.3254,0.12263 2.31902,0.19423 0.9936,0.0716 1.79381,0.14292 1.77824,0.15849 -0.0155,0.0155 -0.7557,0.0804 -1.64473,0.14396 -0.88904,0.0636 -1.91985,0.1435 -2.2907,0.17754 l -0.67429,0.0619 0,-0.40008 z m 27.67263,0.21535 c -0.94939,-0.0748 -1.89609,-0.14655 -2.10377,-0.1595 -0.20768,-0.013 0.35064,-0.0857 1.24069,-0.16187 0.89005,-0.0761 1.97025,-0.16915 2.40045,-0.2068 l 0.78217,-0.0684 0,0.3821 c 0,0.44297 0.26714,0.41827 -2.31954,0.21454 z m -18.61025,-2.15199 0,-1.56433 0.91703,0 0.91702,0 0,0.48548 0,0.48549 4.09966,0 4.09965,0 0,-0.48549 0,-0.48548 0.91702,0 0.91703,0 0,1.56433 0,1.56435 -0.91703,0 -0.91702,0 0,-0.53944 0,-0.53942 -4.09965,0 -4.09966,0 0,0.53942 0,0.53944 -0.91702,0 -0.91703,0 0,-1.56435 z m 2.15772,1.18674 0,-0.37759 3.77599,0 3.77598,0 0,0.37759 0,0.37761 -3.77598,0 -3.77599,0 0,-0.37761 z m -8.82495,-1.84017 c -1.84311,-0.89688 -2.06951,-1.03516 -1.97252,-1.20478 0.27222,-0.47604 0.278,-0.47732 0.71791,-0.16088 0.23309,0.16767 1.09134,0.75693 1.90723,1.30946 0.81588,0.55255 1.48343,1.0232 1.48343,1.04592 0,0.0545 0.20886,0.15133 -2.13605,-0.98972 z m 23.22766,0.94607 c 0.0972,-0.096 3.29626,-2.36533 3.56313,-2.52774 0.0609,-0.0371 0.19257,0.0751 0.29254,0.24925 l 0.18176,0.31669 -2.07266,1.0341 c -1.13996,0.56876 -2.02412,0.98621 -1.96477,0.9277 z m -21.09161,-2.84765 c -1.54863,-1.94214 -1.43577,-1.73722 -1.07182,-1.9461 l 0.31051,-0.1782 0.5266,0.93723 c 0.90068,1.60299 1.44248,2.60948 1.40423,2.60859 -0.0202,-3.6e-4 -0.54649,-0.64016 -1.16952,-1.42152 z m 20.17381,0.61323 c 0.25422,-0.47469 0.70213,-1.28832 0.99536,-1.80805 l 0.53314,-0.94498 0.3109,0.18364 c 0.1866,0.11023 0.27648,0.22925 0.22481,0.29768 -0.29031,0.38447 -2.33147,2.93804 -2.41952,3.02692 -0.0588,0.0593 0.10106,-0.2805 0.35531,-0.75521 z m -16.96805,0.26972 c -0.036,-0.14835 -0.0946,-0.73093 -0.13025,-1.29463 -0.0356,-0.56369 -0.0931,-1.25551 -0.12763,-1.53736 l -0.0628,-0.51246 0.39244,0 0.39245,0 -0.0643,0.5664 c -0.0354,0.31152 -0.12507,1.1247 -0.19941,1.80708 -0.0834,0.76532 -0.16024,1.13734 -0.20058,0.97097 z m 14.39489,-1.2108 c -0.074,-0.78782 -0.16177,-1.59018 -0.19489,-1.78302 -0.0591,-0.34382 -0.0523,-0.35063 0.34328,-0.35063 l 0.40351,0 -0.0645,0.51246 c -0.0355,0.28185 -0.0965,1.02221 -0.13579,1.64524 -0.0392,0.62305 -0.10408,1.19481 -0.14414,1.27058 -0.04,0.0758 -0.13342,-0.50681 -0.20749,-1.29463 z"
       id="path4231"
       inkscape:connector-curvature="0" />
  </g>
</svg>
