<?xml version="1.0" encoding="UTF-8" standalone="no"?>
<!-- Created with Inkscape (http://www.inkscape.org/) -->

<svg
   xmlns:dc="http://purl.org/dc/elements/1.1/"
   xmlns:cc="http://creativecommons.org/ns#"
   xmlns:rdf="http://www.w3.org/1999/02/22-rdf-syntax-ns#"
   xmlns:svg="http://www.w3.org/2000/svg"
   xmlns="http://www.w3.org/2000/svg"
   xmlns:sodipodi="http://sodipodi.sourceforge.net/DTD/sodipodi-0.dtd"
   xmlns:inkscape="http://www.inkscape.org/namespaces/inkscape"
   width="11.288884mm"
   height="10.528881mm"
   viewBox="0 0 39.999983 37.307059"
   id="svg5471"
   version="1.1"
   inkscape:version="0.91 r13725"
   sodipodi:docname="icono-emergencias.svg">
  <defs
     id="defs5473" />
  <sodipodi:namedview
     id="base"
     pagecolor="#ffffff"
     bordercolor="#666666"
     borderopacity="1.0"
     inkscape:pageopacity="0.0"
     inkscape:pageshadow="2"
     inkscape:zoom="7.3859416"
     inkscape:cx="34.153187"
     inkscape:cy="9.8664479"
     inkscape:document-units="px"
     inkscape:current-layer="layer1"
     showgrid="false"
     fit-margin-top="0"
     fit-margin-left="0"
     fit-margin-right="0"
     fit-margin-bottom="0"
     inkscape:window-width="1920"
     inkscape:window-height="1028"
     inkscape:window-x="0"
     inkscape:window-y="0"
     inkscape:window-maximized="1" />
  <metadata
     id="metadata5476">
    <rdf:RDF>
      <cc:Work
         rdf:about="">
        <dc:format>image/svg+xml</dc:format>
        <dc:type
           rdf:resource="http://purl.org/dc/dcmitype/StillImage" />
        <dc:title></dc:title>
      </cc:Work>
    </rdf:RDF>
  </metadata>
  <g
     inkscape:label="Capa 1"
     inkscape:groupmode="layer"
     id="layer1"
     transform="translate(-145.5991,-636.28854)">
    <path
       style="fill:#ffffff"
       d="m 164.02018,673.35885 c -0.3805,-0.13562 -0.98343,-0.47778 -1.33986,-0.76036 -0.77508,-0.61449 -1.6306,-2.20367 -1.6306,-3.02896 l 0,-0.59323 -3.22277,0 c -2.85793,0 -3.30118,-0.04 -3.91522,-0.35325 -0.89352,-0.45585 -1.46226,-1.26699 -1.57219,-2.2423 -0.14633,-1.29825 0.0733,-1.91514 1.10609,-3.10784 1.07363,-1.23974 2.05455,-2.9893 2.51154,-4.47953 0.20772,-0.6774 0.34319,-2.03675 0.43616,-4.37687 0.14298,-3.59856 0.30501,-4.39439 1.21618,-5.97343 1.00502,-1.74168 3.03199,-3.42056 4.86466,-4.02928 l 0.86596,-0.28762 0.0606,-1.88084 0.0606,-1.88083 0.66731,-0.61119 c 1.07552,-0.98507 2.46465,-0.79785 3.30224,0.44505 0.35083,0.52059 0.40733,0.83284 0.40733,2.25122 l 0,1.64679 1.05877,0.38606 c 1.94528,0.70928 3.90501,2.44869 4.8326,4.28929 0.84779,1.68221 0.93917,2.16307 1.07279,5.64478 0.11383,2.96624 0.18801,3.56328 0.58814,4.73417 0.57625,1.68624 1.19395,2.79061 2.16982,3.87942 1.14133,1.27341 1.40596,1.8917 1.31976,3.08351 -0.0877,1.21289 -0.5842,2.00066 -1.58148,2.50944 -0.61349,0.31298 -1.05719,0.35325 -3.89197,0.35325 l -3.19955,0 -0.0894,0.79341 c -0.17266,1.53185 -1.41748,3.04999 -2.94902,3.59655 -0.86518,0.30874 -2.27093,0.30544 -3.14858,-0.008 z m 2.72538,-2.70874 c 0.34507,-0.2417 0.91413,-1.22448 0.91413,-1.57875 0,-0.0523 -0.92451,-0.0951 -2.05445,-0.0951 -1.12995,0 -2.05446,0.0427 -2.05446,0.0951 0,0.0523 0.1121,0.36335 0.24911,0.69125 0.33098,0.79215 0.92315,1.17881 1.80535,1.17881 0.39842,0 0.91157,-0.13109 1.14032,-0.29131 z m 9.55173,-4.61606 c 0.06,-0.15639 -0.25271,-0.67671 -0.77363,-1.28717 -2.4518,-2.87321 -3.39779,-5.90778 -3.39779,-10.89958 0,-1.59732 -0.0761,-2.21121 -0.37229,-3.00281 -0.78042,-2.08589 -2.50252,-3.60301 -4.69989,-4.1405 -2.85492,-0.69833 -5.82404,0.67942 -7.25737,3.36764 -0.59892,1.12328 -0.60282,1.14635 -0.7412,4.38464 -0.0765,1.79047 -0.26013,3.77725 -0.40804,4.41505 -0.52548,2.26582 -1.54053,4.24569 -3.09857,6.04378 -0.43779,0.50524 -0.69657,0.95938 -0.63626,1.11655 0.15292,0.39849 21.23214,0.40086 21.38504,0.002 z m -29.11522,-8.68008 c -0.5564,-0.20583 -0.75954,-0.5662 -1.16317,-2.06352 -0.55848,-2.07174 -0.55998,-5.6656 -0.003,-7.73994 1.05575,-3.93356 3.38477,-7.22846 6.63843,-9.3915 1.46741,-0.97552 3.43866,-1.86339 4.15273,-1.87041 0.67251,-0.007 1.20588,0.57163 1.20588,1.30734 0,0.72842 -0.32331,1.04191 -1.5871,1.5389 -2.20712,0.86794 -4.63412,2.86592 -6.02293,4.95826 -1.91832,2.89006 -2.66196,6.74601 -1.92204,9.96611 0.46728,2.03357 0.49674,2.56794 0.16199,2.93784 -0.34971,0.38641 -0.97064,0.53816 -1.46056,0.35692 z m 36.10929,0.0457 c -0.98072,-0.19861 -1.19929,-1.01269 -0.705,-2.62586 0.15053,-0.49128 0.32146,-1.65861 0.37984,-2.59406 0.34831,-5.58038 -2.96157,-10.86347 -8.16061,-13.02562 -1.34514,-0.55941 -1.60783,-0.82791 -1.60783,-1.6434 0,-0.53257 0.099,-0.74766 0.45008,-0.97769 0.61765,-0.4047 1.41505,-0.2463 3.19244,0.63418 4.05508,2.00879 7.26659,6.02894 8.35654,10.46068 0.54061,2.19813 0.5357,5.61733 -0.011,7.66858 -0.4883,1.83208 -0.91174,2.30218 -1.89444,2.10319 z m -30.91226,-1.63631 c -0.55194,-0.22118 -0.75878,-0.55465 -1.05899,-1.70725 -0.35297,-1.35515 -0.35203,-3.9343 0.002,-5.30029 0.83979,-3.24088 2.9314,-5.82303 5.901,-7.28496 1.28458,-0.6324 2.07216,-0.68894 2.57614,-0.18496 0.42251,0.42251 0.47953,1.46264 0.0976,1.77965 -0.14285,0.11856 -0.80608,0.4807 -1.47384,0.80475 -1.50054,0.72818 -2.49814,1.58088 -3.34875,2.86238 -1.19838,1.80544 -1.68856,3.96427 -1.33906,5.89736 0.40105,2.21815 0.40607,2.48246 0.053,2.79302 -0.44409,0.39062 -0.96778,0.51711 -1.40897,0.3403 z m 25.54662,0 c -0.70362,-0.28198 -0.85882,-0.65434 -0.69303,-1.66265 0.0845,-0.51411 0.15586,-1.81904 0.1585,-2.89986 0.005,-1.90353 -0.016,-2.00869 -0.6589,-3.35507 -0.84935,-1.77872 -2.10208,-3.05127 -3.87709,-3.9384 -0.72882,-0.36425 -1.43225,-0.75119 -1.56317,-0.85984 -0.36354,-0.30172 -0.2926,-1.34978 0.11925,-1.76164 0.53209,-0.53209 1.22429,-0.43914 2.87223,0.38568 4.39119,2.19786 6.73135,7.33014 5.60344,12.28915 -0.35372,1.55522 -1.02925,2.17612 -1.96123,1.80263 z"
       id="path4282"
       inkscape:connector-curvature="0" />
  </g>
</svg>
