<?xml version="1.0" encoding="UTF-8" standalone="no"?>
<!-- Created with Inkscape (http://www.inkscape.org/) -->

<svg
   xmlns:dc="http://purl.org/dc/elements/1.1/"
   xmlns:cc="http://creativecommons.org/ns#"
   xmlns:rdf="http://www.w3.org/1999/02/22-rdf-syntax-ns#"
   xmlns:svg="http://www.w3.org/2000/svg"
   xmlns="http://www.w3.org/2000/svg"
   xmlns:sodipodi="http://sodipodi.sourceforge.net/DTD/sodipodi-0.dtd"
   xmlns:inkscape="http://www.inkscape.org/namespaces/inkscape"
   width="11.288903mm"
   height="10.880587mm"
   viewBox="0 0 40.000051 38.55326"
   id="svg4339"
   version="1.1"
   inkscape:version="0.91 r13725"
   sodipodi:docname="icono-oficial-azul.svg">
  <defs
     id="defs4341" />
  <sodipodi:namedview
     id="base"
     pagecolor="#ffffff"
     bordercolor="#666666"
     borderopacity="1.0"
     inkscape:pageopacity="0.0"
     inkscape:pageshadow="2"
     inkscape:zoom="5.6"
     inkscape:cx="12.684519"
     inkscape:cy="-2.9917778"
     inkscape:document-units="px"
     inkscape:current-layer="layer1"
     showgrid="false"
     fit-margin-top="0"
     fit-margin-left="0"
     fit-margin-right="0"
     fit-margin-bottom="0"
     inkscape:window-width="1920"
     inkscape:window-height="1028"
     inkscape:window-x="0"
     inkscape:window-y="0"
     inkscape:window-maximized="1" />
  <metadata
     id="metadata4344">
    <rdf:RDF>
      <cc:Work
         rdf:about="">
        <dc:format>image/svg+xml</dc:format>
        <dc:type
           rdf:resource="http://purl.org/dc/dcmitype/StillImage" />
        <dc:title></dc:title>
      </cc:Work>
    </rdf:RDF>
  </metadata>
  <g
     inkscape:label="Capa 1"
     inkscape:groupmode="layer"
     id="layer1"
     transform="translate(-361.80609,-445.9405)">
    <path
       inkscape:connector-curvature="0"
       style="fill:#4575af;fill-opacity:1"
       d="m 379.16899,447.90479 c -1.08709,0 -1.9651,0.87437 -1.9651,1.96146 l 0,0.54325 c -4.40665,1.34998 -7.28195,4.54182 -7.28443,8.0865 0.002,0.25807 0.0187,0.51602 0.0509,0.77291 -1.76584,-0.15792 -3.51427,-0.33561 -5.22817,-0.55051 -1.34742,-0.18406 -0.86971,0.42509 -0.53228,1.26146 0.94399,1.94422 2.78784,3.66089 5.24273,4.99117 -0.15046,9.25396 4.61148,13.92869 9.96048,14.85321 a 2.4130862,2.4130862 0 0 0 -0.0218,0.29168 2.4130862,2.4130862 0 0 0 2.41356,2.41355 2.4130862,2.4130862 0 0 0 2.41355,-2.41355 2.4130862,2.4130862 0 0 0 -0.0364,-0.43022 c 5.56244,-1.27877 10.38218,-6.39813 9.52661,-14.45945 2.63304,-1.32892 4.62581,-3.08862 5.65472,-5.09691 0.70991,-1.44608 0.55527,-1.41096 -1.02084,-1.41094 -1.6606,0.23003 -3.30755,0.41004 -4.94743,0.56509 0.0349,-0.26207 0.0554,-0.52412 0.0583,-0.78749 -0.002,-3.59714 -2.96192,-6.82533 -7.46305,-8.1412 l 0,-0.48855 c 0,-1.08711 -0.87803,-1.96146 -1.96513,-1.96146 l -4.85627,0 z m -1.03176,7.35734 3.31771,0.007 3.32138,0.0112 0.0876,0.0876 0.0838,0.0838 0,2.43907 0,2.43177 -0.10565,0.29534 c -0.14897,0.42129 -0.29225,0.69509 -0.55416,1.0427 -0.50539,0.67068 -1.43901,1.40675 -2.39534,1.88856 -0.4072,0.20516 -0.4495,0.21263 -0.68541,0.11666 l 0,-0.004 c -0.27866,-0.11349 -0.88139,-0.46991 -1.33803,-0.79114 -0.5285,-0.37182 -1.27609,-1.12661 -1.50574,-1.52398 -0.21342,-0.36929 -0.35363,-0.72114 -0.40834,-1.02084 -0.0265,-0.1456 -0.0401,-1.03979 -0.0401,-2.53388 l 0,-2.30781 0.10939,-0.11312 0.11293,-0.10938 z m -6.1214,10.87194 c 2.83467,1.06438 6.19614,1.6843 9.80733,1.68438 3.39816,7e-5 6.56786,-0.55089 9.2933,-1.5021 0.17529,1.30423 0.12973,3.04957 -0.1568,4.06514 -1.04538,3.70455 -4.01679,6.43365 -7.7037,7.07659 -2.80194,0.4886 -5.56431,-0.21447 -7.79484,-1.98698 -2.49489,-1.9826 -3.93298,-5.39317 -3.58023,-8.48756 0.0329,-0.28827 0.081,-0.57089 0.13496,-0.84947 z m 5.27919,2.50833 a 0.9028061,0.9028061 0 0 0 -0.83855,0.90054 0.9028061,0.9028061 0 0 0 0.90418,0.90416 0.9028061,0.9028061 0 0 0 0.90052,-0.90416 0.9028061,0.9028061 0 0 0 -0.90052,-0.90054 0.9028061,0.9028061 0 0 0 -0.0657,0 z m 8.88859,0 a 0.9028061,0.9028061 0 0 0 -0.83855,0.90054 0.9028061,0.9028061 0 0 0 0.90418,0.90416 0.9028061,0.9028061 0 0 0 0.90417,-0.90416 0.9028061,0.9028061 0 0 0 -0.90417,-0.90054 0.9028061,0.9028061 0 0 0 -0.0657,0 z"
       id="path4318" />
  </g>
</svg>
