<?xml version="1.0" encoding="UTF-8" standalone="no"?>
<svg
   xmlns:dc="http://purl.org/dc/elements/1.1/"
   xmlns:cc="http://creativecommons.org/ns#"
   xmlns:rdf="http://www.w3.org/1999/02/22-rdf-syntax-ns#"
   xmlns:svg="http://www.w3.org/2000/svg"
   xmlns="http://www.w3.org/2000/svg"
   xmlns:sodipodi="http://sodipodi.sourceforge.net/DTD/sodipodi-0.dtd"
   xmlns:inkscape="http://www.inkscape.org/namespaces/inkscape"
   width="55"
   height="55"
   viewBox="0 0 55 55.000001"
   class="cont-icono"
   id="svg4190"
   version="1.1"
   inkscape:version="0.91 r13725"
   sodipodi:docname="icono-caracteristicas.svg">
  <metadata
     id="metadata4198">
    <rdf:RDF>
      <cc:Work
         rdf:about="">
        <dc:format>image/svg+xml</dc:format>
        <dc:type
           rdf:resource="http://purl.org/dc/dcmitype/StillImage" />
        <dc:title></dc:title>
      </cc:Work>
    </rdf:RDF>
  </metadata>
  <sodipodi:namedview
     pagecolor="#ffffff"
     bordercolor="#666666"
     borderopacity="1"
     objecttolerance="10"
     gridtolerance="10"
     guidetolerance="10"
     inkscape:pageopacity="0"
     inkscape:pageshadow="2"
     inkscape:window-width="1920"
     inkscape:window-height="1028"
     id="namedview4196"
     showgrid="false"
     inkscape:zoom="6.6333333"
     inkscape:cx="36.650786"
     inkscape:cy="2.9568077"
     inkscape:window-x="0"
     inkscape:window-y="0"
     inkscape:window-maximized="1"
     inkscape:current-layer="svg4190" />
  <defs
     id="defs4302" />
  <path
     style="fill:#4f93cf;fill-opacity:1"
     d="m 32.280663,52.50148 c -0.145423,-0.03603 -0.688215,-0.401367 -1.181254,-0.795054 -2.863272,-2.286278 -4.659764,-5.377763 -5.234395,-9.00776 -0.143651,-0.907529 -0.144266,-3.240118 -9.45e-4,-4.135214 0.638322,-3.990086 2.773863,-7.370834 6.069961,-9.609174 0.478901,-0.325216 0.585943,-0.375207 0.793681,-0.37069 0.345708,0.0078 0.558079,0.180068 0.704015,0.572012 0.163792,0.439911 0.417889,0.82243 0.699724,1.053386 1.130999,0.926757 2.890855,0.505664 3.521835,-0.842708 0.34094,-0.72856 0.278535,-1.250863 -0.336723,-2.818434 -0.216684,-0.552052 -0.468991,-1.271024 -0.560689,-1.59772 -0.858297,-3.057683 -0.711943,-6.154931 0.415582,-8.794706 0.528396,-1.237107 0.942029,-1.938533 1.695805,-2.875727 0.595807,-0.740768 0.96269,-0.892964 1.511805,-0.627134 0.311702,0.15089 0.436707,0.365512 0.55404,0.951241 0.506296,2.527573 2.448753,6.036217 6.921481,12.50221 3.172669,4.586593 3.212711,4.648306 3.921226,6.043245 2.107054,4.148425 2.643232,8.508004 1.52445,12.395021 -0.873298,3.034066 -2.767466,5.692288 -5.399998,7.57823 -0.42594,0.305142 -0.542591,0.362561 -0.739522,0.363507 -0.192842,0 -0.259307,-0.0294 -0.379278,-0.171785 -0.19363,-0.230158 -0.184937,-0.421111 0.04284,-0.941885 0.982648,-2.24641 0.898719,-4.763692 -0.244127,-7.322448 -0.364102,-0.815275 -0.678803,-1.325515 -1.975247,-3.202539 -2.633964,-3.813453 -3.543926,-5.367793 -4.033186,-6.888904 -0.264845,-0.823327 -0.373631,-0.969185 -0.722894,-0.969185 -0.156965,0 -0.241013,0.04547 -0.407208,0.220151 -0.466907,0.490787 -1.106494,1.59591 -1.335941,2.308396 -0.169497,0.526274 -0.223315,0.895845 -0.321031,2.204556 -0.05101,0.684206 -0.131855,1.34041 -0.195685,1.590021 -0.217287,0.849631 -0.606299,1.420883 -1.325748,1.946974 -1.389311,1.015905 -2.071141,1.648481 -2.719995,2.52364 -0.928471,1.252136 -1.459116,2.843676 -1.46006,4.37903 -8.09e-4,1.265232 0.172037,2.002963 0.85701,3.6579 0.144056,0.348036 -0.271544,0.777598 -0.659408,0.681547 z M 1.7388588,51.574022 C 1.5927185,51.500032 1.4185789,51.346337 1.3195781,51.203877 L 1.1502574,50.960244 1.1349727,27.210913 C 1.12115,5.5541336 1.1271899,3.4405454 1.2096437,3.2233251 1.332126,2.8987809 1.6789555,2.6116315 2.042529,2.5337662 2.2483095,2.4897591 6.6333486,2.4770032 17.44526,2.4892783 l 15.115046,0.017038 0.252852,0.1404804 c 0.1914,0.1063441 0.290411,0.21463 0.407383,0.4455572 l 0.154523,0.3050633 0,11.5026122 0,11.502611 -0.463567,-0.02882 c -0.782652,-0.04868 -1.298898,0.134907 -2.289743,0.814234 -1.264484,0.86694 -2.341701,1.846609 -3.296905,2.998411 l -0.600275,0.723801 -1.903622,0 c -1.185838,0 -1.995184,0.02308 -2.146475,0.06113 -0.312774,0.07876 -0.636461,0.347258 -0.768154,0.637241 -0.09588,0.211144 -0.103884,0.41449 -0.103884,2.644867 0,2.716402 -0.002,2.700553 0.418472,3.047353 0.262363,0.216208 0.569714,0.295931 1.141055,0.295931 l 0.444632,0 -0.07048,0.407443 c -0.219196,1.266002 -0.248041,3.595077 -0.05998,4.846357 0.473713,3.152517 1.704305,5.897204 3.709615,8.273924 l 0.48593,0.575916 -3.176282,0 -3.176282,0 0,-3.036061 c 0,-3.341854 0.0078,-3.266306 -0.349788,-3.635225 -0.34642,-0.357899 -0.34272,-0.357617 -4.010579,-0.340052 -3.265664,0.01616 -3.312513,0.01703 -3.534298,0.136663 -0.282107,0.151856 -0.447931,0.328098 -0.559209,0.594414 -0.07487,0.179193 -0.08694,0.631059 -0.08694,3.244197 l 0,3.036061 -5.4946949,0 -5.4946869,0 -0.2499604,-0.126418 z M 11.822747,37.53568 c 0.312774,-0.07876 0.636451,-0.347267 0.768145,-0.63722 0.09588,-0.211175 0.103896,-0.414561 0.103896,-2.644935 0,-2.230396 -0.0078,-2.433743 -0.103896,-2.644887 -0.13169,-0.289974 -0.455371,-0.55849 -0.768145,-0.637251 -0.329295,-0.08295 -4.2149387,-0.08295 -4.5442337,0 -0.312783,0.07876 -0.6364513,0.347277 -0.7681543,0.637251 -0.095902,0.211144 -0.1038951,0.414491 -0.1038951,2.644887 0,2.241289 0.00782,2.432903 0.1052028,2.647873 0.1231419,0.271156 0.420741,0.527794 0.7199237,0.620905 0.2842106,0.0883 4.2473296,0.09993 4.5911496,0.01322 z m 0,-11.687481 c 0.312774,-0.07875 0.636451,-0.347276 0.768145,-0.637239 0.09588,-0.211155 0.103896,-0.414502 0.103896,-2.644906 0,-2.230395 -0.0078,-2.433742 -0.103896,-2.644886 -0.13169,-0.289974 -0.455371,-0.55849 -0.768145,-0.637251 -0.329295,-0.08295 -4.2149387,-0.08295 -4.5442337,0 -0.312783,0.07876 -0.6364513,0.347277 -0.7681543,0.637251 -0.095902,0.211144 -0.1038951,0.414491 -0.1038951,2.644886 0,2.24127 0.00782,2.432934 0.1052028,2.647835 0.1231419,0.271185 0.420741,0.527852 0.7199237,0.620905 0.2842106,0.08849 4.2473296,0.09999 4.5911496,0.01337 z m 15.452188,0 c 0.312774,-0.07875 0.636442,-0.347276 0.768154,-0.637239 0.09591,-0.211155 0.103896,-0.414502 0.103896,-2.644906 0,-2.230395 -0.0078,-2.433742 -0.103896,-2.644886 -0.131705,-0.289974 -0.45538,-0.55849 -0.768154,-0.637251 -0.329529,-0.08295 -4.270907,-0.08295 -4.600427,0 -0.312775,0.07876 -0.636452,0.347277 -0.768154,0.637251 -0.09591,0.211144 -0.103896,0.414491 -0.103896,2.644886 0,2.24127 0.0078,2.432934 0.105222,2.647835 0.123141,0.271185 0.42073,0.527852 0.719914,0.620905 0.284346,0.08849 4.303269,0.100037 4.647342,0.01337 z M 11.822747,14.329291 c 0.312774,-0.07876 0.636451,-0.347267 0.768145,-0.63724 0.09588,-0.211146 0.103896,-0.414501 0.103896,-2.644897 0,-2.2170962 -0.0087,-2.434714 -0.10233,-2.6414006 C 12.463771,8.1224789 12.146199,7.840137 11.869991,7.763432 11.58181,7.6834074 7.5173247,7.6839835 7.2288215,7.7642408 6.9672274,7.8368739 6.582565,8.1728894 6.4797004,8.4186148 c -0.059588,0.1423277 -0.075454,0.6984079 -0.074477,2.6128172 9.54e-4,2.255211 0.00872,2.44886 0.1064343,2.663686 0.123142,0.271182 0.4207425,0.527852 0.7199252,0.620904 0.2842106,0.0884 4.2473307,0.09999 4.5911507,0.01337 z m 15.452188,0 c 0.312774,-0.07876 0.636442,-0.347267 0.768154,-0.63724 0.09591,-0.211146 0.103896,-0.414501 0.103896,-2.644897 0,-2.2170962 -0.0087,-2.434714 -0.10233,-2.6414006 -0.128702,-0.2832745 -0.44626,-0.5656164 -0.722467,-0.6423214 -0.288357,-0.080122 -4.408684,-0.079546 -4.697363,8.088e-4 -0.261585,0.072633 -0.646257,0.4086486 -0.749121,0.654374 -0.05959,0.1423277 -0.07546,0.6984079 -0.07448,2.6128172 9.53e-4,2.255211 0.0087,2.44886 0.106449,2.663686 0.123142,0.271182 0.420732,0.527852 0.719915,0.620904 0.284345,0.08849 4.303268,0.100036 4.647343,0.01337 z"
     id="path4932"
     inkscape:connector-curvature="0" />
</svg>
