<?xml version="1.0" encoding="UTF-8" standalone="no"?>
<!-- Created with Inkscape (http://www.inkscape.org/) -->

<svg
   xmlns:dc="http://purl.org/dc/elements/1.1/"
   xmlns:cc="http://creativecommons.org/ns#"
   xmlns:rdf="http://www.w3.org/1999/02/22-rdf-syntax-ns#"
   xmlns:svg="http://www.w3.org/2000/svg"
   xmlns="http://www.w3.org/2000/svg"
   xmlns:sodipodi="http://sodipodi.sourceforge.net/DTD/sodipodi-0.dtd"
   xmlns:inkscape="http://www.inkscape.org/namespaces/inkscape"
   width="104.71705mm"
   height="37.253349mm"
   viewBox="0 0 371.04467 132.00005"
   id="svg4283"
   version="1.1"
   inkscape:version="0.91 r13725"
   sodipodi:docname="logo.svg">
  <defs
     id="defs4285" />
  <sodipodi:namedview
     id="base"
     pagecolor="#ffffff"
     bordercolor="#666666"
     borderopacity="1.0"
     inkscape:pageopacity="0.0"
     inkscape:pageshadow="2"
     inkscape:zoom="1.4"
     inkscape:cx="274.02949"
     inkscape:cy="-3.5403518"
     inkscape:document-units="px"
     inkscape:current-layer="layer1"
     showgrid="false"
     fit-margin-top="0"
     fit-margin-left="0"
     fit-margin-right="0"
     fit-margin-bottom="0"
     inkscape:window-width="1366"
     inkscape:window-height="718"
     inkscape:window-x="0"
     inkscape:window-y="0"
     inkscape:window-maximized="1" />
  <metadata
     id="metadata4288">
    <rdf:RDF>
      <cc:Work
         rdf:about="">
        <dc:format>image/svg+xml</dc:format>
        <dc:type
           rdf:resource="http://purl.org/dc/dcmitype/StillImage" />
        <dc:title></dc:title>
      </cc:Work>
    </rdf:RDF>
  </metadata>
  <g
     inkscape:label="Capa 1"
     inkscape:groupmode="layer"
     id="layer1"
     transform="translate(-304.14829,-357.43987)">
    <path
       style="opacity:1;fill:#ffff00;fill-opacity:1;stroke:none;stroke-width:1;stroke-linecap:butt;stroke-linejoin:miter;stroke-miterlimit:4;stroke-dasharray:none;stroke-dashoffset:0;stroke-opacity:1"
       d="m 364.37156,357.43986 c 0.008,17.65194 0.0206,35.30471 0.008,52.95599 l 0.002,0 c -9.7e-4,-3.16189 -0.002,-6.3237 -0.002,-9.48552 l 2.36432,0 c 0.72274,-0.0869 1.44492,-0.13435 2.1662,-0.14301 1.71073,-0.0209 3.40367,0.19511 5.05508,0.57956 l 0,-43.90702 -9.59315,0 z m 26.42079,61.79422 c 0.0356,0.29503 0.0688,0.59108 0.0905,0.89004 0.0188,2.92718 0.0275,5.85442 0.0415,8.78178 14.24294,0.033 28.08937,0.0488 43.22389,0.0395 l 0,-9.71133 -43.35598,0 z"
       id="rect4258"
       inkscape:connector-curvature="0" />
    <path
       sodipodi:nodetypes="cccccccccscscccccccs"
       inkscape:connector-curvature="0"
       id="path4249"
       d="m 369.38695,446.11255 c 0.72128,-0.009 1.44347,-0.0561 2.1662,-0.14301 l 62.59512,0 0,-17.02351 c -22.1178,0.0135 -41.05302,0.014 -63.16639,-0.0847 -7.60377,0 -6.60095,-6.72015 -6.60095,-11.23737 0.0269,-20.05971 -9.7e-4,-40.12241 -0.01,-60.18351 l -17.07483,0 c -0.0212,23.1072 -0.0315,46.21391 0.11699,69.31528 0.80361,11.04209 11.15422,19.489 21.97329,19.3568 z m 15.26526,-26.87785 49.49606,0 0,-17.20228 -38.94433,0 c -4.39598,-0.0493 -4.2475,0.16887 -4.2475,-4.18652 l 0,-40.40543 -16.9918,0 0,53.53775 c 0,8.36136 5.20548,8.25648 10.68757,8.25648 z"
       style="opacity:1;fill:#ff0000;fill-opacity:1;stroke:none;stroke-width:0.97957319;stroke-linecap:butt;stroke-linejoin:miter;stroke-miterlimit:4;stroke-dasharray:none;stroke-dashoffset:0;stroke-opacity:1" />
    <path
       style="opacity:1;fill:#04a6e3;fill-opacity:1;stroke:none;stroke-width:0.97957319;stroke-linecap:butt;stroke-linejoin:miter;stroke-miterlimit:4;stroke-dasharray:none;stroke-dashoffset:0;stroke-opacity:1"
       d="m 368.90963,400.76732 c -0.72128,0.009 -1.44346,0.0561 -2.1662,0.14301 l -2.36433,0 c -6e-4,5.57097 0.01,11.14244 0.002,16.71304 0,0.12295 -0.005,0.26159 -0.006,0.38762 1.0161,0.004 1.9106,0.003 2.93984,0.008 7.40684,0 6.65045,6.36302 6.60614,10.86856 2.35895,0.0211 2.51529,0.0357 0,0.0452 -9.3e-4,0.10484 -0.006,0.22098 -0.006,0.32365 -0.0269,20.05971 7.3e-4,40.12241 0.01,60.18351 l 17.07483,0 c 0.0212,-23.10719 0.0315,-46.2139 -0.11699,-69.31528 -0.80361,-11.04209 -11.15422,-19.489 -21.97329,-19.3568 z m -64.76132,0.14301 0,17.02351 c 15.13372,-0.01 29.0307,0.002 43.22202,0.032 -0.0273,-5.68502 -0.0479,-11.36997 -0.0604,-17.0555 l -43.16164,0 z m 0,26.73484 0,17.20228 38.94434,0 c 4.39598,0.0493 4.24749,-0.16867 4.24749,4.18672 l 0,40.40523 16.9918,0 0,-43.90702 c -8.50979,-1.98101 -15.75897,-9.00812 -16.82954,-17.88721 l -43.35409,0 z"
       id="path4226"
       inkscape:connector-curvature="0" />
    <g
       transform="matrix(1.0193687,0,0,0.98099931,0.71428571,2.8571429)"
       style="font-style:normal;font-variant:normal;font-weight:normal;font-stretch:normal;font-size:101.34208679px;line-height:110.00000238%;font-family:'Open Sans';-inkscape-font-specification:'Open Sans, Normal';text-align:center;letter-spacing:0px;word-spacing:0px;writing-mode:lr-tb;text-anchor:middle;fill:#04a6e3;fill-opacity:1;stroke:none;stroke-width:1px;stroke-linecap:butt;stroke-linejoin:miter;stroke-opacity:1"
       id="text4200">
      <path
         d="m 438.88866,437.26332 21.32737,-1.33605 q 0.69276,5.19576 2.82055,7.91735 3.46384,4.40402 9.89669,4.40402 4.79989,0 7.37303,-2.22675 2.62263,-2.27624 2.62263,-5.24525 0,-2.82055 -2.47418,-5.04731 -2.47417,-2.22675 -11.48015,-4.20609 -14.74607,-3.31539 -21.03047,-8.80805 -6.33388,-5.49267 -6.33388,-14.00382 0,-5.59163 3.21643,-10.53997 3.2659,-4.99783 9.74823,-7.81838 6.53182,-2.87004 17.86353,-2.87004 13.90484,0 21.17891,5.19576 7.32355,5.14628 8.70908,16.4285 l -21.12942,1.23709 q -0.84122,-4.89886 -3.56281,-7.12562 -2.67211,-2.22675 -7.42252,-2.22675 -3.90919,0 -5.88853,1.68243 -1.97934,1.63296 -1.97934,4.00816 0,1.73192 1.63296,3.11746 1.58347,1.43502 7.52148,2.6721 14.69658,3.16694 21.03046,6.43285 6.38337,3.21643 9.25341,8.01632 2.91952,4.79989 2.91952,10.73791 0,6.97716 -3.85971,12.86569 -3.85971,5.88853 -10.78739,8.9565 -6.92768,3.01849 -17.46765,3.01849 -18.50681,0 -25.63243,-7.12561 -7.12561,-7.12562 -8.0658,-18.11094 z"
         style="font-style:normal;font-variant:normal;font-weight:900;font-stretch:normal;font-family:Arial;-inkscape-font-specification:'Arial Heavy';fill:#04a6e3;fill-opacity:1"
         id="path4884"
         inkscape:connector-curvature="0" />
      <path
         d="m 513.21279,425.04091 q 0,-17.76456 9.89669,-27.66125 9.89668,-9.89668 27.56227,-9.89668 18.11094,0 27.90866,9.74823 9.79772,9.69876 9.79772,27.2159 0,12.71724 -4.30505,20.88201 -4.25558,8.11528 -12.37086,12.66776 -8.06581,4.50299 -20.13977,4.50299 -12.27189,0 -20.33769,-3.90919 -8.01632,-3.90919 -13.01414,-12.37086 -4.99783,-8.46167 -4.99783,-21.17891 z m 22.416,0.099 q 0,10.98532 4.05764,15.78521 4.10712,4.7999 11.13377,4.7999 7.22459,0 11.18326,-4.70093 3.95868,-4.70093 3.95868,-16.87385 0,-10.24308 -4.15661,-14.944 -4.10713,-4.75041 -11.18326,-4.75041 -6.77923,0 -10.88636,4.79989 -4.10712,4.79989 -4.10712,15.88419 z"
         style="font-style:normal;font-variant:normal;font-weight:900;font-stretch:normal;font-family:Arial;-inkscape-font-specification:'Arial Heavy';fill:#04a6e3;fill-opacity:1"
         id="path4886"
         inkscape:connector-curvature="0" />
      <path
         d="m 600.50158,388.72006 60.07289,0 0,15.48832 -37.60741,0 0,11.52964 34.88582,0 0,14.79555 -34.88582,0 0,14.30071 38.69605,0 0,16.42851 -61.16153,0 0,-72.54273 z"
         style="font-style:normal;font-variant:normal;font-weight:900;font-stretch:normal;font-family:Arial;-inkscape-font-specification:'Arial Heavy';fill:#04a6e3;fill-opacity:1"
         id="path4888"
         inkscape:connector-curvature="0" />
    </g>
  </g>
</svg>
