<?xml version="1.0" encoding="UTF-8" standalone="no"?>
<svg
   xmlns:dc="http://purl.org/dc/elements/1.1/"
   xmlns:cc="http://creativecommons.org/ns#"
   xmlns:rdf="http://www.w3.org/1999/02/22-rdf-syntax-ns#"
   xmlns:svg="http://www.w3.org/2000/svg"
   xmlns="http://www.w3.org/2000/svg"
   xmlns:sodipodi="http://sodipodi.sourceforge.net/DTD/sodipodi-0.dtd"
   xmlns:inkscape="http://www.inkscape.org/namespaces/inkscape"
   width="55"
   height="55"
   viewBox="0 0 55 55.000001"
   class="cont-icono"
   id="svg4190"
   version="1.1"
   inkscape:version="0.91 r13725"
   sodipodi:docname="icono-bomberos-lesionados-azul.svg">
  <metadata
     id="metadata4198">
    <rdf:RDF>
      <cc:Work
         rdf:about="">
        <dc:format>image/svg+xml</dc:format>
        <dc:type
           rdf:resource="http://purl.org/dc/dcmitype/StillImage" />
        <dc:title></dc:title>
      </cc:Work>
    </rdf:RDF>
  </metadata>
  <sodipodi:namedview
     pagecolor="#ffffff"
     bordercolor="#666666"
     borderopacity="1"
     objecttolerance="10"
     gridtolerance="10"
     guidetolerance="10"
     inkscape:pageopacity="0"
     inkscape:pageshadow="2"
     inkscape:window-width="1920"
     inkscape:window-height="1028"
     id="namedview4196"
     showgrid="false"
     inkscape:zoom="6.6333333"
     inkscape:cx="6.5000321"
     inkscape:cy="2.6553002"
     inkscape:window-x="0"
     inkscape:window-y="0"
     inkscape:window-maximized="1"
     inkscape:current-layer="svg4190" />
  <defs
     id="defs4302" />
  <path
     id="path4829"
     d="m 25.705097,0.69972704 c -0.947429,0 -1.710422,0.76126856 -1.710422,1.70869756 l 0,0.4730231 a 10.255638,7.6278668 0 0 0 -6.349794,7.0490464 10.255638,7.6278668 0 0 0 0.0462,0.6735329 c -1.538965,-0.137632 -3.065114,-0.292573 -4.558823,-0.479873 -1.17431,-0.160407 -0.756811,0.36967 -0.462742,1.09858 0.822715,1.69443 2.429621,3.192077 4.569108,4.351452 -0.07744,0.320961 -0.14967,0.645241 -0.198817,0.978599 -0.175716,1.193637 -0.183411,1.735704 -0.04279,2.882682 0.294948,2.406893 1.388386,4.594991 3.1809,6.365233 l 0.874058,0.86376 -0.764376,0.116482 c -4.091644,0.62637 -7.351999,3.617888 -8.438963,7.743159 -0.219771,0.833256 -0.224505,0.950585 -0.224505,4.815901 0,2.179004 -0.02701,3.960649 -0.06003,3.960698 -0.03286,1.6e-5 -0.191074,0.134215 -0.351335,0.298202 -0.325207,0.332626 -0.477123,0.872057 -0.736963,2.611909 -0.212776,1.424714 -0.144302,3.424829 0.149182,4.349727 0.671889,2.118371 2.177051,3.310559 4.653086,3.686476 0.130473,0.01985 3.04836,0.04262 6.483472,0.04962 6.445387,0.01301 6.421293,0.01464 6.850229,-0.371898 0.173113,-0.15569 0.472925,-0.174122 3.415703,-0.207391 3.059325,-0.03465 3.260551,-0.04799 3.890418,-0.255351 0.950683,-0.312827 1.340216,-0.532208 1.924646,-1.084865 0.572928,-0.541807 0.986669,-1.273206 1.14828,-2.034328 0.158781,-0.747733 0.135517,-3.185732 -0.03595,-3.844167 -0.202722,-0.778334 -0.543271,-1.40189 -1.040306,-1.898925 -0.457113,-0.457113 -1.248071,-0.955531 -1.691567,-1.066027 -0.145766,-0.03628 -0.253577,-0.102166 -0.23822,-0.147392 0.01464,-0.04523 1.202292,-1.77452 2.637597,-3.842427 l 2.610184,-3.760172 0.0462,8.622341 c 0.03725,6.759858 0.07451,8.668251 0.169664,8.834873 0.270399,0.473267 1.11724,0.647536 1.641867,0.337621 0.591311,-0.349253 0.562142,0.227938 0.562142,-11.033725 l 0,-10.264208 0.270789,-0.397618 c 0.653099,-0.953579 0.724941,-1.175172 0.724941,-2.246844 0,-1.360633 -0.19724,-1.760122 -1.503031,-3.038648 -1.14828,-1.124333 -1.778246,-1.497597 -2.661593,-1.58016 -0.847069,-0.07906 -1.393756,0.115995 -2.656468,0.946046 l -1.033441,0.678674 -1.05402,-0.02912 c -0.580005,-0.01692 -1.066775,-0.04246 -1.081433,-0.05661 -0.01464,-0.01464 0.29812,-0.341249 0.69582,-0.726682 2.158278,-2.091626 3.268295,-4.70861 3.268295,-7.703724 0,-0.801077 -0.08687,-1.578728 -0.245069,-2.330821 2.294754,-1.158188 4.032279,-2.690307 4.928999,-4.440571 0.618692,-1.260289 0.484135,-1.23055 -0.88948,-1.230534 -1.447247,0.200477 -2.882845,0.358461 -4.312033,0.493587 A 10.255638,7.6278668 0 0 0 38.154325,9.9303049 10.255638,7.6278668 0 0 0 31.65029,2.8332826 l 0,-0.425031 c 0,-0.9474453 -0.762993,-1.70871378 -1.710422,-1.70871378 l -4.234904,0 z m -0.898054,6.41148366 2.892963,0.00813 2.892964,0.00813 0.07532,0.075323 0.07532,0.075323 0,2.1234468 0,2.1217385 -0.09257,0.257075 c -0.129822,0.367164 -0.256749,0.605384 -0.485012,0.908336 -0.440454,0.584511 -1.252285,1.225376 -2.085753,1.645283 -0.354881,0.178807 -0.390819,0.184826 -0.59642,0.10119 l 0,-0.0016 c -0.242856,-0.09891 -0.770867,-0.410698 -1.168843,-0.690663 -0.460594,-0.324036 -1.10922,-0.981918 -1.309371,-1.328242 -0.185998,-0.32184 -0.308793,-0.62829 -0.356476,-0.889481 -0.0231,-0.126894 -0.03595,-0.907018 -0.03595,-2.2091493 l 0,-2.0120564 0.09598,-0.097611 0.09761,-0.095984 z m -5.335192,9.4758523 c 2.47047,0.927663 5.399697,1.468705 8.546937,1.46877 2.961568,6.5e-5 5.726059,-0.482101 8.101342,-1.311096 0.152761,1.136665 0.112578,2.659137 -0.137143,3.544225 -0.911069,3.228599 -3.499909,5.606079 -6.713135,6.166415 -2.441951,0.425828 -4.851431,-0.187918 -6.795388,-1.732694 -2.174351,-1.727878 -3.426619,-4.69841 -3.119193,-7.39524 0.02863,-0.251235 0.06947,-0.497573 0.116482,-0.74038 z m 20.752937,10.807511 c 0.03905,-0.0049 0.06068,0.0049 0.09078,0.01139 0.128358,0.03221 0.572944,0.364626 0.987173,0.738655 1.326973,1.198192 1.338198,1.384255 0.174821,3.066061 -0.465588,0.67306 -1.024444,1.481247 -1.240832,1.794416 -0.216371,0.313152 -0.977363,1.410691 -1.691566,2.438796 -3.343097,4.812354 -8.219794,11.838153 -9.750058,14.048376 l -1.691567,2.443953 -5.556281,-0.01139 c -3.056299,-0.0065 -5.830698,-0.04767 -6.16469,-0.09078 -1.676714,-0.2172 -2.525231,-1.235723 -2.639322,-3.170618 -0.04913,-0.834542 0.06865,-2.18922 0.267357,-3.071201 0.08834,-0.391843 0.159106,-0.479368 0.637546,-0.786664 0.295957,-0.190065 2.460368,-1.615462 4.809052,-3.16891 2.348685,-1.55343 5.06032,-3.345358 6.025872,-3.981245 0.965568,-0.635887 3.015726,-1.989703 4.55541,-3.007803 9.848531,-6.512267 10.912768,-7.218564 11.186257,-7.252988 z m -13.297715,1.600723 c 5.692058,-0.03091 6.580026,-0.0033 6.06529,0.193661 -0.06914,0.02652 -1.722753,1.105982 -3.676194,2.397669 -1.953458,1.291735 -4.513925,2.981789 -5.688251,3.755031 l -2.133745,1.405355 -0.04799,-1.239107 -0.04799,-1.237399 -0.303343,-0.272497 c -0.587993,-0.524985 -1.439974,-0.426723 -1.828678,0.210807 -0.175277,0.287546 -0.191675,0.476846 -0.191952,2.22628 l 0,1.910932 -2.5142,1.671003 c -1.382449,0.919171 -2.539612,1.671003 -2.570766,1.671003 -0.03091,0 -0.03758,-1.355817 -0.01627,-3.012943 0.04604,-3.444564 0.0776,-3.637769 0.832932,-5.194665 1.022215,-2.107227 2.848485,-3.606858 5.16896,-4.243477 0.738932,-0.202673 0.924442,-0.208839 6.951354,-0.241653 z m 7.660873,16.586589 c 0.343997,0.02424 1.021548,0.23604 1.321377,0.447303 0.642866,0.452996 0.763155,0.814255 0.796945,2.395961 0.02766,1.297641 0.01643,1.400262 -0.197093,1.802957 -0.26355,0.496905 -0.925808,0.889594 -1.766971,1.045463 -0.786062,0.145603 -4.310097,0.125593 -4.224622,-0.02408 0.08606,-0.150972 1.041916,-1.534446 2.605043,-3.772179 0.674444,-0.965569 1.241417,-1.799183 1.259654,-1.85095 0.01464,-0.04035 0.09094,-0.05271 0.205667,-0.04458 z"
     style="fill:#4f93cf;fill-opacity:1"
     inkscape:connector-curvature="0" />
</svg>
