<?xml version="1.0" encoding="UTF-8" standalone="no"?>
<svg
   xmlns:dc="http://purl.org/dc/elements/1.1/"
   xmlns:cc="http://creativecommons.org/ns#"
   xmlns:rdf="http://www.w3.org/1999/02/22-rdf-syntax-ns#"
   xmlns:svg="http://www.w3.org/2000/svg"
   xmlns="http://www.w3.org/2000/svg"
   xmlns:sodipodi="http://sodipodi.sourceforge.net/DTD/sodipodi-0.dtd"
   xmlns:inkscape="http://www.inkscape.org/namespaces/inkscape"
   width="55"
   height="55"
   viewBox="0 0 55 55.000001"
   class="cont-icono"
   id="svg4190"
   version="1.1"
   inkscape:version="0.91 r13725"
   sodipodi:docname="icono-ubicacion.svg">
  <metadata
     id="metadata4198">
    <rdf:RDF>
      <cc:Work
         rdf:about="">
        <dc:format>image/svg+xml</dc:format>
        <dc:type
           rdf:resource="http://purl.org/dc/dcmitype/StillImage" />
        <dc:title />
      </cc:Work>
    </rdf:RDF>
  </metadata>
  <sodipodi:namedview
     pagecolor="#ffffff"
     bordercolor="#666666"
     borderopacity="1"
     objecttolerance="10"
     gridtolerance="10"
     guidetolerance="10"
     inkscape:pageopacity="0"
     inkscape:pageshadow="2"
     inkscape:window-width="1920"
     inkscape:window-height="1028"
     id="namedview4196"
     showgrid="false"
     inkscape:zoom="6.6333333"
     inkscape:cx="36.650786"
     inkscape:cy="2.9568077"
     inkscape:window-x="0"
     inkscape:window-y="0"
     inkscape:window-maximized="1"
     inkscape:current-layer="svg4190" />
  <defs
     id="defs4302" />
  <g
     class="icono"
     transform="matrix(1.8513999,0,0,1.8513999,248.39949,-971.53253)"
     id="g4193"
     style="fill:#4f93cf;fill-opacity:1">
    <path
       inkscape:connector-curvature="0"
       id="path4960"
       d="m -119.7816,552.88323 c -0.10971,-0.0858 -1.2335,-1.6166 -2.49722,-3.40174 -1.26372,-1.78511 -3.12815,-4.41912 -4.14322,-5.8533 -1.89934,-2.68365 -2.48706,-3.69478 -2.92275,-5.02847 -1.56236,-4.78272 0.79607,-10.26826 5.38396,-12.52276 1.59916,-0.78582 2.72614,-1.03769 4.64318,-1.03769 1.91703,0 3.04399,0.25187 4.64315,1.03769 3.93543,1.93386 6.36387,6.38959 5.78622,10.61657 -0.29113,2.13035 -0.8636,3.44608 -2.52241,5.79725 -5.03013,7.12966 -7.27172,10.25994 -7.44205,10.39245 -0.1103,0.0857 -0.31951,0.15604 -0.46491,0.15604 -0.14537,0 -0.35419,-0.0702 -0.46395,-0.15604 z m 1.92787,-14.22526 c 0.67245,-0.28783 1.48473,-1.10596 1.79462,-1.80751 0.32145,-0.7278 0.29633,-2.08462 -0.0518,-2.80187 -0.64619,-1.33092 -1.75785,-2.03713 -3.20663,-2.03713 -1.05042,0 -1.80089,0.30082 -2.47048,0.99026 -0.72376,0.74525 -1.01815,1.47517 -1.00759,2.49834 0.0102,1.02018 0.23116,1.60076 0.88208,2.32127 1.05347,1.16605 2.56334,1.4772 4.05992,0.83664 z"
       style="fill:#4f93cf;fill-opacity:1" />
  </g>
</svg>
