<?xml version="1.0" encoding="UTF-8" standalone="no"?>
<svg
   xmlns:dc="http://purl.org/dc/elements/1.1/"
   xmlns:cc="http://creativecommons.org/ns#"
   xmlns:rdf="http://www.w3.org/1999/02/22-rdf-syntax-ns#"
   xmlns:svg="http://www.w3.org/2000/svg"
   xmlns="http://www.w3.org/2000/svg"
   xmlns:sodipodi="http://sodipodi.sourceforge.net/DTD/sodipodi-0.dtd"
   xmlns:inkscape="http://www.inkscape.org/namespaces/inkscape"
   width="55"
   height="55"
   viewBox="0 0 55 55.000001"
   class="cont-icono"
   id="svg4190"
   version="1.1"
   inkscape:version="0.91 r13725"
   sodipodi:docname="icono-apoyo.svg">
  <metadata
     id="metadata4198">
    <rdf:RDF>
      <cc:Work
         rdf:about="">
        <dc:format>image/svg+xml</dc:format>
        <dc:type
           rdf:resource="http://purl.org/dc/dcmitype/StillImage" />
        <dc:title></dc:title>
      </cc:Work>
    </rdf:RDF>
  </metadata>
  <sodipodi:namedview
     pagecolor="#ffffff"
     bordercolor="#666666"
     borderopacity="1"
     objecttolerance="10"
     gridtolerance="10"
     guidetolerance="10"
     inkscape:pageopacity="0"
     inkscape:pageshadow="2"
     inkscape:window-width="1920"
     inkscape:window-height="1028"
     id="namedview4196"
     showgrid="false"
     inkscape:zoom="6.6333333"
     inkscape:cx="36.650786"
     inkscape:cy="2.9568077"
     inkscape:window-x="0"
     inkscape:window-y="0"
     inkscape:window-maximized="1"
     inkscape:current-layer="svg4190" />
  <defs
     id="defs4302" />
  <path
     id="path4958"
     style="fill:#4f93cf;fill-opacity:1"
     d="m 15.023862,35.661346 c -0.378518,0.05652 -0.60373,0.205132 -0.793344,0.457205 -1.632807,2.170934 4.167412,8.956072 9.430503,11.030618 1.602895,0.631716 4.326821,0.726758 4.643533,0.161373 0.1243,-0.222015 -0.216527,-1.493606 -0.757505,-2.823766 -1.830435,-4.500807 -6.363643,-8.167981 -10.810986,-8.744724 -0.802155,-0.103948 -1.333667,-0.137205 -1.712201,-0.08068 z M 12.105979,16.033929 10.599961,19.426935 C 8.9209411,23.203016 8.0334825,26.586625 7.870329,29.85246 l -0.1075817,2.17386 2.7520577,1.92733 0,-0.0037 c 2.157232,1.511141 2.867435,1.831888 3.298871,1.483591 0.302609,-0.244275 0.605419,-0.476412 0.667842,-0.515429 0.06233,-0.03902 -1.13744,-0.927786 -2.662393,-1.976599 -1.646074,-1.132062 -2.7701035,-2.177113 -2.7655241,-2.57275 0.016356,-1.826309 1.1801101,-6.392899 2.3262561,-9.130199 l 1.286383,-3.070297 4.45977,0 c 3.90402,0 4.575606,-0.102678 5.392064,-0.811278 l 0.932272,-0.811261 -2.707225,0 c -1.489863,-0.0015 -4.040277,-0.115578 -5.669958,-0.255471 L 12.105979,16.034752 Z M 30.69803,14.281402 c -0.889894,-0.09976 -1.56755,0.269407 -4.051889,1.685308 -3.867272,2.203953 -4.016815,2.443996 -4.85419,7.866188 -0.641529,4.153763 -0.389929,5.067299 1.286383,4.697324 1.514886,-0.334285 2.002202,-0.848279 3.101663,-3.254057 1.028095,-2.249641 1.397127,-2.641968 2.492098,-2.653435 0.449608,-0.0037 3.395694,2.753129 7.610718,7.117678 7.074245,7.325335 7.503046,7.972789 6.382614,9.663566 -0.464073,0.700335 -0.71829,0.539708 -3.872597,-2.451737 -1.856895,-1.761124 -3.573968,-3.204756 -3.814319,-3.204756 -0.997639,0 -0.267355,1.045871 2.680331,3.827767 1.71482,1.61836 3.246969,3.073422 3.406452,3.23612 0.159374,0.162826 -0.347405,0.764612 -1.129518,1.335686 l -1.42533,1.039871 -3.930859,-3.66194 c -3.061027,-2.849517 -4.030282,-3.553833 -4.37011,-3.173371 -0.338227,0.378571 -0.310932,0.597442 0.130117,0.968164 1.131662,0.951481 6.951852,6.437277 6.951852,6.552909 0,0.06506 -0.819057,0.335721 -1.819767,0.600623 L 33.65193,44.952903 30.662321,42.04845 c -2.2566,-2.194087 -3.090558,-2.792837 -3.406452,-2.438291 -0.314714,0.353275 -0.146472,0.728213 0.68129,1.510489 3.509909,3.316952 3.948996,3.850117 3.442307,4.204264 -0.27786,0.194067 -0.877282,0.353984 -1.331214,0.358584 -0.578888,0.0035 -0.82471,0.247947 -0.82471,0.815749 0,0.970288 -0.159373,0.964128 3.87258,0.18834 3.718566,-0.715527 5.734488,-1.608711 8.247194,-3.644005 2.421571,-1.961495 3.432548,-3.82682 3.182366,-5.885103 -0.187378,-1.54158 -0.139929,-1.634079 1.44325,-2.657923 1.617197,-1.045797 1.636296,-1.08694 1.389477,-2.72965 C 46.742902,27.674146 43.983503,21.58442 41.625701,19.117727 40.430216,17.867035 35.443638,15.545378 31.733559,14.514538 31.314935,14.398232 30.994825,14.31473 30.698176,14.281475 Z M 0.51508133,8.4904325 l 0,27.4084835 C 2.3528211,36.631363 4.1919964,37.33666 5.1182716,37.629038 8.7084853,38.762282 9.5346111,38.557586 7.8972063,36.947748 5.1444402,34.241303 5.664667,26.681777 9.1432645,18.89355 L 10.716502,15.370557 3.3702318,10.422252 C 1.958603,9.4713527 1.7160535,9.3018568 0.51508133,8.4904325 Z M 54.484919,7.3161014 l -3.895025,2.7923826 -8.52956,6.113697 1.501528,1.882497 c 3.190562,3.998298 5.836238,10.165349 6.10919,14.239881 0.162645,2.428185 0.09631,2.752602 -0.815732,3.948793 l -0.990588,1.299831 0.990588,0 c 0.672895,0 3.228509,-0.823037 5.629599,-1.712185 l 0,-28.5648966 z"
     inkscape:connector-curvature="0" />
</svg>
