<?xml version="1.0" encoding="UTF-8" standalone="no"?>
<!-- Created with Inkscape (http://www.inkscape.org/) -->

<svg
   xmlns:dc="http://purl.org/dc/elements/1.1/"
   xmlns:cc="http://creativecommons.org/ns#"
   xmlns:rdf="http://www.w3.org/1999/02/22-rdf-syntax-ns#"
   xmlns:svg="http://www.w3.org/2000/svg"
   xmlns="http://www.w3.org/2000/svg"
   xmlns:sodipodi="http://sodipodi.sourceforge.net/DTD/sodipodi-0.dtd"
   xmlns:inkscape="http://www.inkscape.org/namespaces/inkscape"
   width="11.288903mm"
   height="10.880587mm"
   viewBox="0 0 40.000051 38.55326"
   id="svg4339"
   version="1.1"
   inkscape:version="0.91 r13725"
   sodipodi:docname="icono-carro-azul.svg">
  <defs
     id="defs4341" />
  <sodipodi:namedview
     id="base"
     pagecolor="#ffffff"
     bordercolor="#666666"
     borderopacity="1.0"
     inkscape:pageopacity="0.0"
     inkscape:pageshadow="2"
     inkscape:zoom="5.6"
     inkscape:cx="12.684519"
     inkscape:cy="-2.9917778"
     inkscape:document-units="px"
     inkscape:current-layer="layer1"
     showgrid="false"
     fit-margin-top="0"
     fit-margin-left="0"
     fit-margin-right="0"
     fit-margin-bottom="0"
     inkscape:window-width="1920"
     inkscape:window-height="1028"
     inkscape:window-x="0"
     inkscape:window-y="0"
     inkscape:window-maximized="1" />
  <metadata
     id="metadata4344">
    <rdf:RDF>
      <cc:Work
         rdf:about="">
        <dc:format>image/svg+xml</dc:format>
        <dc:type
           rdf:resource="http://purl.org/dc/dcmitype/StillImage" />
        <dc:title></dc:title>
      </cc:Work>
    </rdf:RDF>
  </metadata>
  <g
     inkscape:label="Capa 1"
     inkscape:groupmode="layer"
     id="layer1"
     transform="translate(-361.80609,-445.9405)">
    <path
       style="fill:#4575af;fill-opacity:1"
       d="m 371.12178,480.59168 0,-1.81912 -0.52814,0 -0.52812,0 0,-0.52813 c 0,-0.50857 -0.0131,-0.52814 -0.3521,-0.52814 -0.35208,0 -0.35208,0 -0.35208,-0.70418 0,-0.70418 0,-0.70418 0.35208,-0.70418 l 0.3521,0 3.8e-4,-9.30101 c 3.9e-4,-9.07395 0.006,-9.31037 0.23365,-9.68353 0.12828,-0.21037 0.40535,-0.48744 0.61573,-0.61571 0.37411,-0.2281 0.61162,-0.23322 10.8278,-0.23322 10.21618,0 10.4537,0.005 10.82781,0.23322 0.21038,0.12827 0.48745,0.40534 0.61573,0.61571 0.22751,0.37316 0.23321,0.60958 0.23365,9.68353 l 3.9e-4,9.30101 0.35208,0 c 0.35209,0 0.35209,0 0.35209,0.70418 0,0.70418 0,0.70418 -0.35209,0.70418 -0.33904,0 -0.35208,0.0196 -0.35208,0.52814 l 0,0.52813 -0.52813,0 -0.52815,0 0,1.81912 0,1.81913 -2.05385,0 -2.05385,0 0,-1.21925 0,-1.21925 -0.39199,-0.0736 c -0.42456,-0.0796 -0.82468,-0.44197 -0.9521,-0.86215 l -0.08,-0.26406 -5.09514,0 -5.09515,0 -0.0741,0.29526 c -0.0901,0.35904 -0.52408,0.71809 -0.99215,0.82089 l -0.34658,0.0761 0,1.22299 0,1.22298 -2.05385,0 -2.05385,0 0,-1.81912 z m 4.93827,-1.22329 c 0.26905,-0.26904 0.34306,-0.44822 0.34306,-0.83056 0,-0.91554 -0.91612,-1.44635 -1.80066,-1.04333 -0.70744,0.32234 -0.73094,1.74243 -0.0345,2.07969 0.50931,0.24662 1.12445,0.16178 1.49202,-0.2058 z m 12.82376,0.21277 c 0.33288,-0.15168 0.54659,-0.55961 0.54659,-1.04333 0,-0.76597 -0.43309,-1.17363 -1.24686,-1.17363 -0.84132,0 -1.35535,0.9551 -0.96964,1.80164 0.22689,0.49797 1.04302,0.70095 1.66991,0.41532 z m -14.36133,-2.35079 c 0.26657,-0.19708 0.4445,-0.23715 0.8259,-0.186 0.26737,0.0358 0.57862,0.14892 0.69166,0.2512 0.18139,0.16417 0.84958,0.186 5.69382,0.186 5.3106,0 5.49797,-0.008 5.78671,-0.23473 0.17728,-0.13944 0.47612,-0.23473 0.73621,-0.23473 0.26009,0 0.55892,0.0953 0.7362,0.23473 0.27534,0.21658 0.47611,0.23473 2.59782,0.23473 l 2.2994,0 0,-0.41078 0,-0.41076 -12.14707,0 -12.14708,0 0,0.41076 0,0.41078 2.29334,0 c 2.15938,0 2.31317,-0.0146 2.63309,-0.2512 z m -0.11448,-2.68288 0,-1.29099 -1.81914,0 -1.81912,0 0,1.29099 0,1.29099 1.81912,0 1.81914,0 0,-1.29099 z m 13.73146,0.88023 0,-0.41078 -6.39628,0 -6.39629,0 0,0.41078 0,0.41076 6.39629,0 6.39628,0 0,-0.41076 z m 4.57716,-0.88023 0,-1.29099 -1.81913,0 -1.81912,0 0,1.29099 0,1.29099 1.81912,0 1.81913,0 0,-1.29099 z m -4.57716,-0.76286 0,-0.41076 -6.39628,0 -6.39629,0 0,0.41076 0,0.41077 6.39629,0 6.39628,0 0,-0.41077 z m -7.15914,-12.14707 0,-3.40352 -5.0466,0 -5.04661,0 0,3.40352 0,3.40352 5.04661,0 5.0466,0 0,-3.40352 z m 11.61894,0 0,-3.40352 -5.04661,0 -5.04661,0 0,3.40352 0,3.40352 5.04661,0 5.04661,0 0,-3.40352 z m -24.2648,4.55338 -1.32034,-1.17488 0,-3.39101 0,-3.39101 1.34968,0 c 1.12146,0 1.34967,0.0298 1.34967,0.17603 0,0.12294 -0.12394,0.17605 -0.41077,0.17605 l -0.41077,0 0,3.22749 0,3.22747 -0.55747,7.8e-4 -0.55748,7.9e-4 0.58637,0.49804 c 1.27686,1.08452 1.37266,1.19366 1.33113,1.5166 -0.0377,0.29304 -0.10615,0.24945 -1.36002,-0.8663 z m 25.44636,0.7573 c 0.006,-0.25247 0.20227,-0.48888 0.90026,-1.08561 l 0.89232,-0.76286 -0.48948,-0.0361 -0.48949,-0.0361 0,-3.22073 0,-3.22073 -0.41077,0 c -0.28689,0 -0.41078,-0.0531 -0.41078,-0.17605 0,-0.14582 0.22169,-0.17603 1.29099,-0.17603 l 1.29101,0 0,3.38904 0,3.38904 -1.21967,1.12944 c -0.67081,0.62118 -1.25175,1.12942 -1.29099,1.12942 -0.0393,0 -0.0678,-0.14524 -0.0634,-0.32274 z M 371.826,456.07574 c 0,-0.0251 0.10564,-0.55912 0.23473,-1.18656 0.12911,-0.62742 0.23472,-1.16138 0.23472,-1.18654 0,-0.0251 0.3391,-0.0458 0.75354,-0.0458 0.8466,0 0.7874,-0.0771 0.94513,1.23231 0.0389,0.32275 0.0993,0.73205 0.13423,0.90956 l 0.0636,0.32276 -1.18295,0 c -0.65062,0 -1.18296,-0.0206 -1.18296,-0.0457 z m 4.57716,-0.24704 -0.88022,-0.23534 0.86502,-0.0347 c 0.47575,-0.0192 0.88933,-0.0101 0.91904,0.0193 0.0297,0.0297 0.0366,0.15125 0.0153,0.2701 -0.0375,0.20851 -0.0697,0.20784 -0.91905,-0.0193 z m 1.291,-7.7e-4 0,-0.29342 4.1077,0 4.1077,0 0,0.29342 0,0.2934 -4.1077,0 -4.1077,0 0,-0.2934 z m 8.5675,0 c 0,-0.28856 0.015,-0.29326 0.90956,-0.28388 l 0.90956,0.0101 -0.88022,0.28164 c -0.48412,0.15491 -0.89342,0.28265 -0.90957,0.28386 -0.0161,0.001 -0.0293,-0.12981 -0.0293,-0.29118 z m 3.17085,0.20538 c 0.001,-0.0485 0.0802,-0.56335 0.1756,-1.14429 0.0954,-0.58096 0.17375,-1.09587 0.17399,-1.14429 2.4e-4,-0.0485 0.33999,-0.088 0.75498,-0.088 l 0.75454,0 0.13147,0.67483 c 0.0723,0.37117 0.15922,0.83328 0.19313,1.02693 0.034,0.19365 0.0877,0.44452 0.11952,0.55748 0.0524,0.18583 -0.0546,0.20538 -1.12371,0.20538 -0.64985,0 -1.18062,-0.0396 -1.17948,-0.088 z m -23.94411,-0.44589 0,-0.43524 0.55748,0.0697 c 0.30661,0.0383 1.44183,0.1334 2.52273,0.21129 1.08089,0.0779 1.9514,0.15548 1.93447,0.17242 -0.0169,0.0169 -0.8221,0.0875 -1.78923,0.15661 -0.96713,0.0692 -2.08849,0.1561 -2.49192,0.19314 l -0.73353,0.0673 0,-0.43522 z m 30.10362,0.23427 c -1.0328,-0.0814 -2.06266,-0.15942 -2.28859,-0.17351 -0.22592,-0.0141 0.38144,-0.0933 1.34968,-0.17609 0.96824,-0.0828 2.14334,-0.18401 2.61133,-0.22497 l 0.85088,-0.0745 0,0.41567 c 0,0.48188 0.29061,0.45501 -2.5233,0.23339 z m -20.24513,-2.34103 0,-1.70176 0.99759,0 0.99758,0 0,0.52812 0,0.52815 4.4598,0 4.4598,0 0,-0.52815 0,-0.52812 0.99759,0 0.99758,0 0,1.70176 0,1.70176 -0.99758,0 -0.99759,0 0,-0.58682 0,-0.58681 -4.4598,0 -4.4598,0 0,0.58681 0,0.58682 -0.99758,0 -0.99759,0 0,-1.70176 z m 2.34727,1.29099 0,-0.41076 4.1077,0 4.1077,0 0,0.41076 0,0.41077 -4.1077,0 -4.1077,0 0,-0.41077 z m -9.6002,-2.00182 c -2.00503,-0.97568 -2.25132,-1.12611 -2.1458,-1.31062 0.29613,-0.51786 0.30242,-0.51926 0.78097,-0.17502 0.25357,0.1824 1.18722,0.82342 2.07478,1.4245 0.88755,0.60108 1.61374,1.11308 1.61374,1.1378 0,0.0593 0.22722,0.16462 -2.32369,-1.07666 z m 25.26816,1.02917 c 0.10577,-0.10438 3.58583,-2.57312 3.87614,-2.7498 0.0663,-0.0404 0.2095,0.0817 0.31825,0.27115 l 0.19772,0.34452 -2.25474,1.12494 c -1.2401,0.61871 -2.20193,1.07285 -2.13737,1.00919 z m -22.94447,-3.09781 c -1.68466,-2.11275 -1.56189,-1.88983 -1.16597,-2.11706 l 0.33778,-0.19385 0.57287,1.01956 c 0.9798,1.74381 1.5692,2.83872 1.52758,2.83775 -0.022,-3.9e-4 -0.59449,-0.6964 -1.27226,-1.5464 z m 21.94605,0.6671 c 0.27654,-0.51639 0.76381,-1.40149 1.0828,-1.96688 l 0.57997,-1.028 0.33821,0.19978 c 0.203,0.11991 0.30078,0.24938 0.24456,0.32382 -0.31581,0.41825 -2.53628,3.19615 -2.63207,3.29283 -0.064,0.0645 0.10994,-0.30514 0.38653,-0.82155 z m -18.45867,0.29342 c -0.0391,-0.16138 -0.10287,-0.79515 -0.14169,-1.40836 -0.0387,-0.61322 -0.10123,-1.36581 -0.13884,-1.67242 l -0.0683,-0.55748 0.42692,0 0.42691,0 -0.0699,0.61616 c -0.0385,0.33889 -0.13605,1.2235 -0.21693,1.96582 -0.0908,0.83256 -0.17431,1.23726 -0.21819,1.05628 z m 15.65946,-1.31717 c -0.0805,-0.85703 -0.17598,-1.72987 -0.21201,-1.93966 -0.0642,-0.37402 -0.0569,-0.38143 0.37344,-0.38143 l 0.43896,0 -0.0702,0.55748 c -0.0386,0.30661 -0.10501,1.11201 -0.14773,1.78978 -0.0427,0.67777 -0.11321,1.29976 -0.1568,1.38219 -0.0435,0.0824 -0.14513,-0.55133 -0.22571,-1.40836 z"
       id="path4231"
       inkscape:connector-curvature="0" />
  </g>
</svg>
