<?xml version="1.0" encoding="UTF-8" standalone="no"?>
<svg
   xmlns:dc="http://purl.org/dc/elements/1.1/"
   xmlns:cc="http://creativecommons.org/ns#"
   xmlns:rdf="http://www.w3.org/1999/02/22-rdf-syntax-ns#"
   xmlns:svg="http://www.w3.org/2000/svg"
   xmlns="http://www.w3.org/2000/svg"
   xmlns:sodipodi="http://sodipodi.sourceforge.net/DTD/sodipodi-0.dtd"
   xmlns:inkscape="http://www.inkscape.org/namespaces/inkscape"
   width="55"
   height="55"
   viewBox="0 0 55 55.000001"
   class="cont-icono"
   id="svg4190"
   version="1.1"
   inkscape:version="0.91 r13725"
   sodipodi:docname="icono-afectados.svg">
  <metadata
     id="metadata4198">
    <rdf:RDF>
      <cc:Work
         rdf:about="">
        <dc:format>image/svg+xml</dc:format>
        <dc:type
           rdf:resource="http://purl.org/dc/dcmitype/StillImage" />
        <dc:title></dc:title>
      </cc:Work>
    </rdf:RDF>
  </metadata>
  <sodipodi:namedview
     pagecolor="#ffffff"
     bordercolor="#666666"
     borderopacity="1"
     objecttolerance="10"
     gridtolerance="10"
     guidetolerance="10"
     inkscape:pageopacity="0"
     inkscape:pageshadow="2"
     inkscape:window-width="1920"
     inkscape:window-height="1028"
     id="namedview4196"
     showgrid="false"
     inkscape:zoom="6.6333333"
     inkscape:cx="36.650786"
     inkscape:cy="2.9568077"
     inkscape:window-x="0"
     inkscape:window-y="0"
     inkscape:window-maximized="1"
     inkscape:current-layer="svg4190" />
  <defs
     id="defs4302" />
  <path
     style="fill:#4f93cf;fill-opacity:1"
     d="M 13.492685,54.399043 C 10.655042,53.968234 8.9305774,52.601861 8.1605633,50.174077 7.82437,49.1141 7.7457401,46.821047 7.9895481,45.188224 c 0.2977708,-1.993925 0.472039,-2.611178 0.8447405,-2.992393 0.1836554,-0.187855 0.3648385,-0.341583 0.4025919,-0.341602 0.037734,-5.6e-5 0.068592,-2.043315 0.068592,-4.540564 0,-4.429831 0.00559,-4.56432 0.2578982,-5.519271 1.2456963,-4.72777 4.9814113,-8.155453 9.6706273,-8.873306 l 0.875189,-0.133838 -1.00096,-0.988506 c -2.0543,-2.02876 -3.308232,-4.537923 -3.646265,-7.296322 C 15.300798,13.18791 15.310279,12.567293 15.511592,11.19932 16.578224,3.952851 23.667229,-0.84494136 30.730358,0.89937583 33.14933,1.4967577 34.988059,2.549802 36.765594,4.355759 c 2.267382,2.3036485 3.480864,5.3178273 3.480864,8.646209 0,3.432534 -1.272538,6.431768 -3.74603,8.82888 -0.455773,0.44172 -0.814869,0.816318 -0.79801,0.832453 0.01673,0.01674 0.57452,0.04517 1.239228,0.06451 l 1.20854,0.03513 1.184093,-0.778397 c 1.447141,-0.951364 2.07497,-1.174855 3.045742,-1.084199 1.012372,0.09462 1.733796,0.523084 3.049776,1.811609 1.496512,1.465265 1.722642,1.922302 1.722642,3.481644 0,1.228205 -0.08216,1.482496 -0.830538,2.575357 l -0.311396,0.454621 0,11.763946 c 0,12.906419 0.03383,12.24418 -0.643872,12.64445 -0.601248,0.355172 -1.571573,0.155772 -1.881465,-0.386549 C 43.376051,53.05446 43.33423,50.867661 43.291624,43.120545 l -0.05428,-9.88131 -2.990777,4.30895 c -1.644942,2.369935 -3.005144,4.351443 -3.02271,4.403379 -0.01673,0.05186 0.104831,0.128446 0.271895,0.170085 0.508268,0.126589 1.414965,0.698003 1.938829,1.221867 0.569648,0.569628 0.961198,1.283245 1.193536,2.175258 0.196537,0.754584 0.221818,3.548471 0.03979,4.405423 -0.185143,0.872288 -0.657851,1.710653 -1.314456,2.331585 -0.669784,0.63337 -1.116953,0.885469 -2.206468,1.244006 -0.72185,0.237526 -0.952832,0.252674 -4.458977,0.292305 -3.372567,0.03812 -3.716809,0.05911 -3.915205,0.237545 -0.491595,0.442445 -0.463693,0.440938 -7.850433,0.425641 -3.936786,-0.0075 -7.280168,-0.03345 -7.429694,-0.05632 z m 15.491479,-5.448449 c 1.753743,-2.533013 7.342276,-10.586283 11.173628,-16.101483 0.818511,-1.178238 1.691097,-2.435888 1.939069,-2.794795 0.247991,-0.358892 0.887438,-1.283619 1.421023,-2.054953 1.333286,-1.927452 1.321094,-2.142169 -0.199695,-3.515363 -0.474717,-0.428656 -0.983448,-0.809535 -1.130503,-0.846471 -0.276004,-0.06933 -0.02621,-0.229661 -12.925473,8.299905 -1.764542,1.166805 -4.113658,2.717727 -5.220256,3.446492 -1.10656,0.728768 -4.214277,2.781672 -6.905962,4.561996 -2.691704,1.780325 -5.171516,3.41521 -5.510684,3.633032 -0.548345,0.352178 -0.62928,0.452018 -0.730457,0.901081 -0.227785,1.010793 -0.362961,2.562515 -0.306601,3.518934 0.130864,2.217491 1.102527,3.38543 3.024123,3.63435 0.382777,0.04944 3.561762,0.0963 7.064431,0.103914 l 6.368455,0.01487 1.938902,-2.800486 z m 6.815735,2.039374 c 0.964024,-0.178636 1.722921,-0.627067 2.024966,-1.196529 0.244775,-0.461518 0.257639,-0.579202 0.225871,-2.066365 -0.03866,-1.812724 -0.176592,-2.227565 -0.913425,-2.746707 -0.458154,-0.322848 -1.685614,-0.645826 -1.75088,-0.460699 -0.021,0.05929 -0.670471,1.013281 -1.443423,2.119861 -1.791402,2.564558 -2.886102,4.150092 -2.984753,4.323039 -0.09797,0.171387 3.940802,0.194308 4.841644,0.02751 z M 14.962224,38.09013 l 2.880696,-1.915296 2.78e-4,-2.19022 c 2.97e-4,-2.00493 0.01896,-2.22065 0.219904,-2.550207 0.445456,-0.730645 1.421675,-0.843161 2.095548,-0.241504 l 0.348648,0.311303 0.05446,1.419072 0.05429,1.419073 2.447002,-1.611185 c 1.345852,-0.886192 4.278705,-2.822419 6.51748,-4.302796 2.238737,-1.48034 4.135165,-2.71639 4.214259,-2.746727 0.589908,-0.226391 -0.429118,-0.259179 -6.952491,-0.223751 -6.907134,0.03755 -7.119488,0.04498 -7.966331,0.277231 -2.659377,0.729601 -4.752826,2.448007 -5.924334,4.862983 -0.865561,1.784281 -0.901195,2.006712 -0.95395,5.954336 -0.02528,1.899161 -0.01674,3.45302 0.01877,3.45302 0.0357,0 1.361244,-0.861898 2.945605,-1.915332 z M 29.528903,22.548034 c 3.682514,-0.642163 6.648325,-3.366824 7.692446,-7.066941 0.351493,-1.245641 0.358037,-3.636861 0.01302,-4.894007 -1.001201,-3.6520286 -3.633307,-6.1799669 -7.374358,-7.0824248 -1.095761,-0.264367 -3.214618,-0.2394397 -4.311757,0.05056 -4.112412,1.0873961 -6.901148,4.3104363 -7.382406,8.5321128 -0.352329,3.09069 1.083493,6.493687 3.575387,8.473931 2.227863,1.770377 4.988697,2.474718 7.787305,1.986712 z"
     id="path4707-3"
     inkscape:connector-curvature="0" />
</svg>
