<?xml version="1.0" encoding="UTF-8" standalone="no"?>
<!-- Created with Inkscape (http://www.inkscape.org/) -->

<svg
   xmlns:dc="http://purl.org/dc/elements/1.1/"
   xmlns:cc="http://creativecommons.org/ns#"
   xmlns:rdf="http://www.w3.org/1999/02/22-rdf-syntax-ns#"
   xmlns:svg="http://www.w3.org/2000/svg"
   xmlns="http://www.w3.org/2000/svg"
   xmlns:sodipodi="http://sodipodi.sourceforge.net/DTD/sodipodi-0.dtd"
   xmlns:inkscape="http://www.inkscape.org/namespaces/inkscape"
   width="11.288903mm"
   height="10.880587mm"
   viewBox="0 0 40.000051 38.55326"
   id="svg4339"
   version="1.1"
   inkscape:version="0.91 r13725"
   sodipodi:docname="icono-bombero-azul.svg">
  <defs
     id="defs4341" />
  <sodipodi:namedview
     id="base"
     pagecolor="#ffffff"
     bordercolor="#666666"
     borderopacity="1.0"
     inkscape:pageopacity="0.0"
     inkscape:pageshadow="2"
     inkscape:zoom="5.6"
     inkscape:cx="-18.208338"
     inkscape:cy="-2.9917778"
     inkscape:document-units="px"
     inkscape:current-layer="layer1"
     showgrid="false"
     fit-margin-top="0"
     fit-margin-left="0"
     fit-margin-right="0"
     fit-margin-bottom="0"
     inkscape:window-width="1920"
     inkscape:window-height="1028"
     inkscape:window-x="0"
     inkscape:window-y="0"
     inkscape:window-maximized="1" />
  <metadata
     id="metadata4344">
    <rdf:RDF>
      <cc:Work
         rdf:about="">
        <dc:format>image/svg+xml</dc:format>
        <dc:type
           rdf:resource="http://purl.org/dc/dcmitype/StillImage" />
        <dc:title></dc:title>
      </cc:Work>
    </rdf:RDF>
  </metadata>
  <g
     inkscape:label="Capa 1"
     inkscape:groupmode="layer"
     id="layer1"
     transform="translate(-361.80609,-445.9405)">
    <path
       inkscape:connector-curvature="0"
       id="path4886"
       style="fill:#4575af;fill-opacity:1;stroke:none"
       d="m 366.75781,470.36289 c -0.86131,0 -4.29623,2.24206 -4.07034,2.65655 0.10934,0.20078 1.50582,2.52262 3.10341,5.16086 l 2.90513,4.79732 c 1.05223,-0.22759 3.50838,-2.11141 4.23556,-2.82177 0,-0.87306 -5.62349,-9.79296 -6.17376,-9.79296 z m 30.17483,-0.47989 c -0.044,-10e-4 -0.0762,0.008 -0.0949,0.0288 -0.65036,0.72902 -5.78009,9.70436 -5.78009,10.11336 0.86514,1.35011 2.26729,1.9959 3.81317,2.27582 0.78004,-0.12959 6.07383,-8.39427 6.06457,-9.46681 -0.005,-0.51496 -3.34063,-2.92647 -4.00282,-2.9511 z m -23.14907,-6.98552 c 2.40103,0.90158 5.24858,1.42663 8.30735,1.4267 2.87831,6e-5 5.56492,-0.4687 7.87344,-1.2744 0.14841,1.1047 0.10918,2.58513 -0.13361,3.44535 -0.88545,3.13783 -3.40143,5.44814 -6.52432,5.99273 -2.37332,0.41385 -4.71548,-0.18254 -6.60478,-1.68389 -2.11323,-1.67933 -3.33035,-4.56565 -3.03158,-7.18667 0.0278,-0.24417 0.0677,-0.48384 0.11352,-0.71982 z m 5.18527,-9.20962 2.81173,0.008 2.81174,0.008 0.0733,0.0733 0.0733,0.0733 0,2.0632 0,2.06174 -0.0905,0.25 c -0.12622,0.35684 -0.2494,0.58916 -0.47126,0.88361 -0.42807,0.56807 -1.21722,1.19101 -2.02726,1.59911 -0.3449,0.17378 -0.3792,0.17904 -0.57901,0.0978 l 0,-0.003 c -0.23604,-0.0962 -0.7497,-0.39886 -1.13649,-0.67096 -0.44765,-0.31492 -1.077,-0.95364 -1.27153,-1.29022 -0.18078,-0.3128 -0.30134,-0.61108 -0.34769,-0.86493 -0.0225,-0.12332 -0.0346,-0.88098 -0.0346,-2.14651 l 0,-1.95544 0.0934,-0.0949 z m 0.8721,-6.23123 c -0.9201,7.2e-4 -1.66089,0.74058 -1.66089,1.66088 l 0,0.45978 c -3.73272,1.14316 -6.16982,3.84801 -6.17231,6.85047 0.002,0.2183 0.0177,0.43643 0.046,0.65372 -1.49571,-0.13378 -2.97924,-0.28349 -4.43097,-0.46552 -1.1413,-0.15596 -0.7355,0.35909 -0.44971,1.06753 0.7996,1.6468 2.36026,3.10303 4.43959,4.22981 -0.0752,0.31194 -0.14488,0.62571 -0.19252,0.94969 -0.17079,1.1601 -0.17833,1.68697 -0.0416,2.80168 0.2011,1.64102 0.79243,3.1737 1.7241,4.53874 -0.12975,0.73292 -0.42838,1.2586 -0.83762,1.2586 -0.29576,0 -1.26895,-0.5223 -2.16376,-1.15948 -0.8948,-0.63714 -1.75388,-1.03197 -1.90801,-0.87784 -0.1542,0.1542 1.61072,2.16674 3.31103,4.91552 1.70032,2.74878 2.72871,5.3602 2.89577,5.36017 0.16699,0 0.13956,-1.0915 -0.0603,-2.42524 l -0.36349,-2.42524 1.81175,0.092 c 1.55542,0.0778 1.89962,0.36245 2.431,2.0129 0.60046,1.86494 0.71134,1.92618 3.71403,2.08618 2.58442,0.13764 3.14837,0.002 3.41374,-0.82327 0.86491,-2.69123 1.4884,-3.38243 3.01432,-3.33902 1.52389,0.0433 1.54788,0.0931 1.22412,2.57035 -0.18153,1.38936 0.0307,2.44292 0.0978,2.12928 0.22838,-1.06956 5.71474,-10.32155 5.98985,-10.27427 0.18005,0.031 -0.96307,0.30292 -1.85342,0.96119 -1.64929,1.21939 -3.08323,1.61051 -2.51145,0.68533 0.17381,-0.28122 0.11174,-0.63933 -0.13941,-0.79452 -0.0812,-0.0502 -0.10564,-0.30571 -0.10483,-0.63648 0.87863,-1.53164 1.33188,-3.25154 1.33188,-5.12637 0,-0.77855 -0.0833,-1.53481 -0.23707,-2.26577 2.23025,-1.12562 3.91865,-2.61494 4.79015,-4.31602 0.60131,-1.22486 0.47007,-1.19538 -0.86493,-1.19538 -1.40656,0.19486 -2.80201,0.34855 -4.19102,0.47989 0.0297,-0.22205 0.0462,-0.44497 0.0489,-0.6681 -7.4e-4,-3.04711 -2.50879,-5.78339 -6.32175,-6.89788 l 0,-0.41236 c 0,-0.92079 -0.74151,-1.66089 -1.66232,-1.66089 l -4.11489,0 z" />
  </g>
</svg>
